<svg xmlns="http://www.w3.org/2000/svg" viewBox="0 0 32 32">
  <!-- Outer petals (8) -->
  <g opacity="0.75">
    <ellipse cx="16" cy="7"  rx="2.2" ry="4.2" fill="#C47E85" transform="rotate(0   16 16)"/>
    <ellipse cx="16" cy="7"  rx="2.2" ry="4.2" fill="#C47E85" transform="rotate(45  16 16)"/>
    <ellipse cx="16" cy="7"  rx="2.2" ry="4.2" fill="#C47E85" transform="rotate(90  16 16)"/>
    <ellipse cx="16" cy="7"  rx="2.2" ry="4.2" fill="#C47E85" transform="rotate(135 16 16)"/>
    <ellipse cx="16" cy="7"  rx="2.2" ry="4.2" fill="#C47E85" transform="rotate(180 16 16)"/>
    <ellipse cx="16" cy="7"  rx="2.2" ry="4.2" fill="#C47E85" transform="rotate(225 16 16)"/>
    <ellipse cx="16" cy="7"  rx="2.2" ry="4.2" fill="#C47E85" transform="rotate(270 16 16)"/>
    <ellipse cx="16" cy="7"  rx="2.2" ry="4.2" fill="#C47E85" transform="rotate(315 16 16)"/>
  </g>
  <!-- Inner petals (6) -->
  <g opacity="0.92">
    <ellipse cx="16" cy="9"  rx="1.7" ry="3.2" fill="#E8B4B8" transform="rotate(0   16 16)"/>
    <ellipse cx="16" cy="9"  rx="1.7" ry="3.2" fill="#E8B4B8" transform="rotate(60  16 16)"/>
    <ellipse cx="16" cy="9"  rx="1.7" ry="3.2" fill="#E8B4B8" transform="rotate(120 16 16)"/>
    <ellipse cx="16" cy="9"  rx="1.7" ry="3.2" fill="#E8B4B8" transform="rotate(180 16 16)"/>
    <ellipse cx="16" cy="9"  rx="1.7" ry="3.2" fill="#E8B4B8" transform="rotate(240 16 16)"/>
    <ellipse cx="16" cy="9"  rx="1.7" ry="3.2" fill="#E8B4B8" transform="rotate(300 16 16)"/>
  </g>
  <!-- Centre -->
  <circle cx="16" cy="16" r="3.8" fill="#F4D6D8"/>
  <circle cx="16" cy="16" r="1.8" fill="#C47E85"/>
</svg>
