<svg xmlns="http://www.w3.org/2000/svg" width="2814" height="1536" viewBox="0 0 2814 1536" version="1.1"><path d="M 1050.652 673.290 C 1043.980 689.258, 1046.443 712.346, 1056.062 724 L 1058.125 726.500 1057.386 724 C 1055.158 716.461, 1057.842 701.795, 1062.913 693.798 C 1067.986 685.799, 1067.757 684.653, 1059.453 676.500 C 1052.127 669.307, 1052.291 669.367, 1050.652 673.290 M 1726.204 673.615 C 1714.056 697.523, 1723.744 734, 1742.241 734 C 1762.923 734, 1758.711 699.637, 1735.207 676.615 L 1728.178 669.730 1726.204 673.615 M 1756.159 677.469 C 1748.468 685.566, 1748.461 685.596, 1752.726 692.119 C 1758.314 700.665, 1761.373 715.392, 1759.196 723.261 C 1757.826 728.212, 1759.094 727.267, 1762.921 720.485 C 1769.907 708.108, 1771.831 690.602, 1767.617 677.762 C 1764.725 668.950, 1764.263 668.938, 1756.159 677.469 M 1078.894 679.250 C 1059.493 699.630, 1054.794 726.272, 1069.348 733.379 C 1086.340 741.677, 1102.031 707.488, 1093.054 681.723 C 1088.496 668.642, 1088.922 668.716, 1078.894 679.250 M 846 678.892 C 846 682.187, 846.375 682.877, 848.450 683.398 C 855.051 685.055, 869 702.625, 869 709.282 C 869 710.960, 869.230 711.054, 870.585 709.930 C 876.837 704.741, 864.042 683.187, 850.955 676.864 C 845.905 674.424, 846 674.385, 846 678.892 M 1962.500 678.427 C 1952.996 684.750, 1947.961 691.914, 1945.808 702.178 C 1943.921 711.175, 1945.693 712.811, 1948.677 704.826 C 1951.654 696.858, 1959.764 687.312, 1965.910 684.541 C 1969.669 682.846, 1970 682.384, 1970 678.848 C 1970 674.120, 1969.055 674.067, 1962.500 678.427 M 829.899 686.122 C 829.209 709.121, 841.917 727.574, 857.017 725.498 C 872.554 723.361, 863.755 696.171, 844.596 687.119 C 834.119 682.169, 830.026 681.891, 829.899 686.122 M 1975.892 685.354 C 1958.363 692.565, 1947.777 709.391, 1952.935 721.843 C 1955.814 728.793, 1970.253 726.177, 1976.908 717.500 C 1978.595 715.300, 1980.416 712.973, 1980.954 712.329 C 1982.820 710.094, 1986 695.588, 1986 689.312 C 1986 681.847, 1985.189 681.530, 1975.892 685.354 M 1027.655 691.735 C 1027.997 694.356, 1028.590 696.950, 1028.973 697.500 C 1029.356 698.050, 1030.489 701.612, 1031.491 705.415 C 1033.547 713.224, 1041.150 722.098, 1051.987 729.335 C 1057.214 732.827, 1061.877 734.703, 1057.220 731.442 C 1049.650 726.139, 1042.312 708.877, 1042.082 695.830 L 1042 691.161 1037.250 689.669 C 1034.638 688.849, 1031.270 687.906, 1029.767 687.574 L 1027.034 686.970 1027.655 691.735 M 1110 689.868 C 1099.899 692.149, 1100 692.051, 1100 699.572 C 1100 712.640, 1093.828 727.783, 1086.070 733.750 C 1080.680 737.896, 1083.118 738, 1091.533 733.984 C 1102.970 728.526, 1115.497 711.623, 1119.421 696.356 C 1121.899 686.712, 1122.412 687.065, 1110 689.868 M 1696.292 692.818 C 1698.240 709.263, 1712.551 728.592, 1727.535 735.015 C 1733.841 737.718, 1733.916 737.609, 1729.093 732.750 C 1721.083 724.680, 1716.021 710.948, 1716.006 697.250 C 1716.003 694.362, 1715.832 692, 1715.627 692 C 1715.421 692, 1711.709 691.107, 1707.377 690.015 C 1695.650 687.061, 1695.611 687.071, 1696.292 692.818 M 1783.500 688.525 C 1782.950 688.727, 1780.588 689.384, 1778.250 689.985 L 1774 691.077 1774 697.357 C 1774 707.576, 1768.443 722.477, 1762.600 727.924 C 1758.214 732.014, 1759.701 732.251, 1765.750 728.426 C 1778.990 720.055, 1785.845 709.529, 1788.571 693.383 C 1788.839 691.797, 1789.256 689.938, 1789.498 689.250 C 1789.913 688.068, 1786.025 687.598, 1783.500 688.525 M 821.048 700.295 C 822.187 711.302, 827.369 720.028, 836 725.472 C 840.180 728.109, 845 729.473, 845 728.019 C 845 727.459, 844.591 727, 844.092 727 C 839.651 727, 829.007 710.659, 826.646 700.218 C 824.553 690.958, 820.088 691.019, 821.048 700.295 M 1989.577 696.250 C 1989.323 697.487, 1988.833 700.245, 1988.489 702.377 C 1987.084 711.064, 1981.135 720.547, 1973.500 726.269 L 1969.500 729.267 1972.830 728.642 C 1986.115 726.151, 1995.940 712.200, 1995.994 695.750 C 1996.004 692.900, 1990.171 693.354, 1989.577 696.250 M 1115.889 715.679 C 1108.971 726.874, 1100.440 734.809, 1091.270 738.580 L 1085.500 740.953 1089.500 740.978 C 1103.108 741.063, 1119.424 733.834, 1128.292 723.791 C 1134.593 716.655, 1134.519 716.419, 1125.055 713.609 C 1118.046 711.527, 1118.522 711.420, 1115.889 715.679 M 1692 713.620 C 1691.175 713.900, 1688.587 714.813, 1686.249 715.648 L 1681.998 717.166 1686.589 723.010 C 1691.231 728.919, 1696.465 733.081, 1701.013 734.480 C 1702.381 734.901, 1703.950 735.589, 1704.500 736.009 C 1706.293 737.379, 1721.850 741.001, 1725.724 740.951 L 1729.500 740.902 1723.064 737.701 C 1715.865 734.121, 1705.395 724.265, 1701.751 717.638 C 1699.467 713.486, 1696.274 712.170, 1692 713.620 M 1775.336 726.108 C 1771.576 729.380, 1765.506 733.567, 1761.848 735.413 C 1755.437 738.646, 1755.284 738.808, 1757.645 739.884 C 1764.716 743.106, 1779.319 739.106, 1790.250 730.953 C 1797.930 725.225, 1797.789 724.777, 1787.336 721.686 L 1782.172 720.159 1775.336 726.108 M 1025.750 723.160 C 1019.951 725.718, 1019.930 726.010, 1025.250 730.266 C 1035.378 738.367, 1045.923 741.785, 1056 740.232 L 1061.500 739.385 1054.500 735.789 C 1050.650 733.811, 1044.729 729.675, 1041.343 726.596 C 1034.457 720.338, 1032.918 719.999, 1025.750 723.160 M 1106 742.135 C 1099.643 744.326, 1084.215 746.300, 1080.225 745.434 L 1077.500 744.842 1080 746.990 C 1087.357 753.312, 1115.232 758.106, 1119.542 753.791 C 1121.124 752.209, 1114.272 739.662, 1112.076 740.120 C 1111.759 740.186, 1109.025 741.093, 1106 742.135 M 1700.339 744.879 C 1693.986 754.260, 1694.591 754.963, 1709.040 754.986 C 1719.600 755.003, 1728.067 752.884, 1734.155 748.699 L 1738.810 745.500 1728.155 744.870 C 1722.295 744.523, 1714.343 743.344, 1710.484 742.249 L 1703.469 740.257 1700.339 744.879 M 1065 742.016 C 1064.175 742.557, 1061.807 743.469, 1059.738 744.042 C 1055.104 745.325, 1055.349 750.223, 1060.323 755.750 C 1064.319 760.189, 1076 756.724, 1076 751.100 C 1076 749.785, 1067.861 740.937, 1066.723 741.015 C 1066.600 741.024, 1065.825 741.474, 1065 742.016 M 1744.750 745.524 C 1740.199 749.645, 1740.186 749.675, 1741.680 752.758 C 1745.250 760.129, 1755.451 759.952, 1758.579 752.466 C 1760.953 746.783, 1760.480 745.699, 1754.643 743.443 L 1749.321 741.386 1744.750 745.524 M 297.678 775.250 C 293.189 781.272, 292.908 783.931, 296.248 788.825 C 302.829 798.469, 307.875 812.527, 308.083 821.799 L 308.167 825.500 310.833 820 C 318.709 803.757, 306.751 763.082, 297.678 775.250 M 2511.629 776.250 C 2501.578 793.648, 2499.949 807.631, 2506.357 821.500 L 2508.667 826.500 2509.263 818.500 C 2510.003 808.567, 2514.072 797.977, 2521.512 786.621 C 2523.247 783.974, 2522.034 779.855, 2518.018 774.750 C 2515.148 771.102, 2514.518 771.250, 2511.629 776.250 M 2538.885 775.963 C 2525.856 784.073, 2512.788 805.893, 2513.110 819 L 2513.172 821.500 2513.975 818.841 C 2516.754 809.644, 2530.727 797.922, 2541.750 795.543 C 2545.375 794.760, 2545.533 794.072, 2545.103 781 C 2544.832 772.772, 2544.476 772.483, 2538.885 775.963 M 271.607 775.582 C 270.857 777.536, 270.829 790.770, 271.569 793.500 C 271.949 794.902, 273.916 796.067, 278.144 797.396 C 289.101 800.839, 298.248 809.032, 302.082 818.836 C 304.155 824.135, 304.528 822.145, 303.010 813.886 C 300.480 800.118, 286.235 779.632, 276.305 775.483 C 271.982 773.677, 272.341 773.669, 271.607 775.582 M 2549.500 798.646 C 2518.605 802.001, 2503.619 835.848, 2531.354 839.632 C 2546.799 841.740, 2577 816.951, 2577 802.165 C 2577 799.939, 2558.913 797.624, 2549.500 798.646 M 247.500 799.497 C 246.950 799.684, 244.815 800.118, 242.755 800.462 L 239.010 801.089 240.551 804.794 C 250.208 828.026, 272.634 843.686, 289.760 839.156 C 310.305 833.722, 297.244 804.751, 272.114 800.015 C 267.144 799.079, 249.809 798.714, 247.500 799.497 M 323.943 803.575 L 318.387 806.112 317.282 812.565 C 316.674 816.114, 314.805 821.807, 313.129 825.217 C 309.607 832.381, 309.783 833.089, 314.423 830.436 C 323.285 825.369, 330.754 814.786, 332.551 804.750 C 333.386 800.086, 332 799.897, 323.943 803.575 M 2483.460 804.715 C 2484.230 808.905, 2489.141 819.383, 2491.796 822.501 C 2496.132 827.593, 2508.491 834.896, 2506.841 831.391 C 2506.610 830.901, 2504.974 827.575, 2503.205 824 C 2501.436 820.425, 2499.450 814.909, 2498.792 811.742 C 2497.496 805.502, 2494.303 802.921, 2486.132 801.511 L 2482.764 800.930 2483.460 804.715 M 239.932 829.280 C 231.316 834.263, 230.481 834.821, 231.008 835.252 C 234.110 837.791, 243.854 844, 244.736 844 C 245.368 844, 247.374 844.877, 249.193 845.949 C 259.656 852.116, 275.334 852.657, 286.765 847.245 C 293.582 844.017, 294.018 843.131, 288.482 843.755 C 277.928 844.944, 263.430 839.593, 253.692 830.913 C 247.203 825.130, 247.125 825.120, 239.932 829.280 M 2564 830.111 C 2553.991 839.086, 2544.054 843.198, 2531.940 843.375 C 2523.819 843.494, 2523.486 843.584, 2525.456 845.139 C 2537.747 854.838, 2559.653 852.120, 2582.375 838.077 L 2586.040 835.812 2582.174 833.011 C 2572.041 825.671, 2569.418 825.252, 2564 830.111 M 300.590 848.292 C 298.452 854.312, 291.991 864.295, 287.698 868.212 C 284.278 871.331, 284.884 874.677, 289.677 879.151 L 292.193 881.500 295.138 878 C 301.914 869.947, 305.966 856.147, 304.043 847.671 C 302.844 842.382, 302.678 842.412, 300.590 848.292 M 2512.598 846.261 C 2510.592 856.290, 2514.331 869.166, 2521.814 877.998 L 2524.778 881.496 2526.842 878.998 C 2531.651 873.178, 2531.643 871.558, 2526.777 865.995 C 2524.336 863.205, 2520.282 856.951, 2517.767 852.097 C 2513.443 843.750, 2513.163 843.434, 2512.598 846.261 M 294.140 848.331 C 287.571 856.247, 264.680 857.367, 248.788 850.550 C 246.743 849.672, 243.544 852.797, 240.341 858.800 L 238.183 862.846 245.585 863.540 C 249.656 863.922, 255.465 863.964, 258.494 863.633 C 263.983 863.035, 265.556 864.042, 263.051 866.550 C 262.529 867.072, 261.797 869.413, 261.423 871.751 L 260.744 876.001 264.122 875.372 C 277.377 872.902, 285.985 866.386, 293.985 852.767 C 296.308 848.813, 296.421 845.583, 294.140 848.331 M 2520 847.540 C 2520 849.008, 2527.369 860.565, 2530.300 863.695 C 2535.033 868.747, 2549.404 876, 2554.682 876 C 2555.771 876, 2554.680 869.794, 2553.015 866.530 C 2550.574 861.742, 2550.321 861.944, 2557.527 862.928 C 2563.497 863.744, 2575.922 863.412, 2576.924 862.409 C 2581.233 858.101, 2569.673 849.749, 2562.692 852.128 C 2549.385 856.661, 2535.260 855.639, 2524.250 849.345 C 2521.912 848.009, 2520 847.196, 2520 847.540 M 915.250 855.247 C 911.200 856.546, 911.209 856.715, 915.578 861.820 C 918.918 865.722, 919.500 866.001, 924.328 866.012 C 930.963 866.027, 938.069 867.946, 945 871.594 C 948.025 873.186, 950.897 874.661, 951.382 874.871 C 953.840 875.939, 945.892 864.186, 941.641 860.467 C 934.706 854.401, 924.303 852.343, 915.250 855.247 M 1882.134 855.280 C 1877.691 856.700, 1870.221 864.248, 1866.575 871.001 L 1863.649 876.418 1867.075 874.137 C 1874.930 868.905, 1880.995 866.779, 1889.602 866.242 L 1898.016 865.717 1901.450 860.936 L 1904.885 856.156 1901.793 855.078 C 1897.933 853.732, 1886.613 853.849, 1882.134 855.280 M 919.500 870.964 C 908.230 873.550, 898.533 884.447, 904 888.382 C 917.273 897.938, 930.580 898.904, 945.741 891.413 C 952.457 888.095, 958.426 882, 954.959 882 C 954.358 882, 952.423 880.899, 950.658 879.552 C 941.674 872.700, 928.164 868.977, 919.500 870.964 M 1884.500 870.971 C 1878.089 871.715, 1875.300 872.911, 1866.099 878.858 L 1860.257 882.633 1862.143 885.221 C 1871.539 898.121, 1900.031 900.023, 1913.335 888.639 L 1917.170 885.357 1912.109 880.507 C 1901.895 870.718, 1898.065 869.395, 1884.500 870.971 M 776.500 874.222 C 767.032 877.578, 757.843 888.112, 756.481 897.170 C 756.133 899.487, 756.603 898.793, 758.028 894.885 C 761.271 885.997, 772.424 875, 778.196 875 C 779.188 875, 780 874.550, 780 874 C 780 873.450, 779.888 873.036, 779.750 873.079 C 779.612 873.122, 778.150 873.637, 776.500 874.222 M 781.763 877.482 C 767.351 881.141, 759.124 894.440, 759.020 914.250 C 758.997 918.638, 759.562 918.770, 768.540 916.478 C 786.709 911.840, 794.844 902.907, 794.956 887.473 C 795.027 877.769, 791.412 875.032, 781.763 877.482 M 2023.057 878.431 C 2012.101 891.632, 2033.486 918, 2055.148 918 C 2060.319 918, 2056.242 895.429, 2049.468 886.547 C 2043.942 879.302, 2026.725 874.011, 2023.057 878.431 M 2015.430 886.500 C 2010.972 900.884, 2020.097 920.397, 2034.786 927.891 C 2046.258 933.743, 2044.420 924.907, 2032.286 915.872 C 2021.956 908.181, 2018.188 901.939, 2017.071 890.672 C 2016.436 884.267, 2016.260 883.821, 2015.430 886.500 M 799 890.757 C 799 898.960, 793.073 909.701, 785.942 914.420 C 775.613 921.255, 770.599 930, 777.009 930 C 788.592 930, 804.074 905.572, 801.568 891.250 C 800.648 885.993, 799 885.676, 799 890.757 M 949.475 891.041 C 948.570 892.505, 941.153 897.085, 939.022 897.496 C 938.047 897.683, 935.506 898.321, 933.375 898.913 C 927.571 900.524, 921.963 900.232, 914.509 897.930 C 910.823 896.791, 907.702 896.004, 907.575 896.180 C 907.448 896.356, 906.141 898.117, 904.672 900.094 C 895.546 912.371, 928.159 911.018, 943.454 898.484 C 947.369 895.276, 951.802 890, 950.582 890 C 950.327 890, 949.829 890.468, 949.475 891.041 M 1867.032 893.060 C 1868.174 895.194, 1876.735 901.779, 1881.710 904.351 C 1890.389 908.837, 1903.785 909.788, 1911.700 906.481 L 1915.129 905.048 1912.017 900.524 C 1908.449 895.339, 1908.365 895.320, 1900.740 898 C 1890.791 901.497, 1879.394 900.149, 1870.968 894.479 C 1867.251 891.977, 1866.262 891.621, 1867.032 893.060 M 949.436 897.483 C 943.735 903.409, 935.618 908.486, 929.173 910.155 C 922.292 911.938, 915.196 924.555, 921.642 923.545 C 923.214 923.299, 926.591 922.866, 929.146 922.582 C 939.577 921.425, 948.158 915.530, 951.830 907 C 953.443 903.250, 955.726 891.748, 954.784 892.109 C 954.628 892.169, 952.221 894.587, 949.436 897.483 M 1861 892.825 C 1861 900.142, 1866.831 912.277, 1872.320 916.384 C 1879.673 921.886, 1897.039 925.767, 1896.978 921.894 C 1896.901 916.990, 1893.087 912.103, 1888.205 910.653 C 1879.140 907.961, 1872.201 903.581, 1865.250 896.162 C 1862.912 893.667, 1861 892.165, 1861 892.825 M 770.500 920 C 769.400 920.473, 767.263 920.891, 765.750 920.930 C 763.272 920.993, 763 921.356, 763 924.604 L 763 928.207 766.274 925.354 C 768.074 923.784, 770.662 921.736, 772.024 920.802 C 774.652 919, 773.832 918.568, 770.500 920 M 2047.432 923.589 C 2050.074 926.015, 2052.633 928, 2053.118 928 C 2054.498 928, 2054.151 921.977, 2052.750 921.605 C 2052.063 921.422, 2049.504 920.801, 2047.064 920.225 L 2042.629 919.179 2047.432 923.589" stroke="none" fill="#e593a6" fill-rule="evenodd"/><path d="M 1405.703 419.250 C 1394.185 447.409, 1391.805 456.205, 1394.874 459.274 C 1396.665 461.065, 1396.225 461.879, 1392.668 463.365 C 1388.600 465.065, 1385.254 469.135, 1384.458 473.351 C 1383.898 476.319, 1383.451 476.599, 1376.682 478.230 C 1368.234 480.264, 1361.950 485.757, 1360.066 492.756 C 1359.218 495.906, 1358.380 496.937, 1356.240 497.469 C 1328.976 504.248, 1305.674 528.614, 1299.549 556.750 L 1298.841 560 1289.621 560 C 1278.538 560, 1278 560.399, 1278 568.633 C 1278 573.903, 1277.703 574.959, 1276.078 575.475 C 1270.638 577.202, 1263.705 588.338, 1261.792 598.421 L 1260.544 605 1235.726 605 L 1210.909 605 1208.455 607.455 C 1203.145 612.764, 1205.800 621.394, 1213.209 622.909 L 1216.500 623.582 1216.500 675.541 L 1216.500 727.500 1210.677 727.802 C 1202.820 728.210, 1199.245 735.182, 1203.851 741.115 C 1204.870 742.427, 1205.963 744.625, 1206.281 746 C 1206.600 747.375, 1207.531 750.525, 1208.350 753 C 1212.124 764.402, 1213.257 768.924, 1213.736 774.500 C 1214.083 778.531, 1214.903 781.215, 1216.233 782.678 C 1217.906 784.518, 1218.121 785.758, 1217.621 790.678 C 1217.296 793.880, 1216.136 805.050, 1215.043 815.500 C 1213.950 825.950, 1212.359 841.925, 1211.508 851 C 1210.656 860.075, 1209.271 874.250, 1208.431 882.500 C 1207.590 890.750, 1206.659 899.927, 1206.361 902.894 L 1205.820 908.289 1196.099 907.652 C 1160.990 905.351, 1153.941 897.259, 1151.973 857 C 1150.525 827.400, 1143.021 808.738, 1122.318 783.250 C 1117.573 777.408, 1117.064 777.672, 1111.695 788.750 C 1095.497 822.175, 1098.066 859.041, 1118.042 879.808 C 1129.297 891.509, 1164.900 910.875, 1175.443 911.030 C 1177.424 911.060, 1177.430 911.101, 1175.602 912.163 C 1173.244 913.532, 1156.690 912.537, 1146 910.382 C 1080.846 897.253, 1046.178 837.270, 1064.862 770 C 1066.512 764.061, 1066.959 763.414, 1070.045 762.500 C 1071.903 761.950, 1075.139 759.872, 1077.235 757.883 L 1081.047 754.265 1087.555 756.628 C 1097.744 760.326, 1121.799 760.601, 1125.340 757.060 C 1126.492 755.908, 1123.543 747.080, 1120.516 742.619 L 1118.166 739.156 1121.833 736.706 C 1128.407 732.314, 1140 719.590, 1140 716.766 C 1140 714.234, 1136.735 712.222, 1128.886 709.916 C 1121.109 707.631, 1120.141 706.407, 1123.028 702.500 C 1124.107 701.039, 1126 691.456, 1126 687.451 L 1126 684 1120.250 684.017 C 1117.088 684.027, 1111.142 684.906, 1107.038 685.972 C 1102.934 687.038, 1099.513 687.817, 1099.436 687.705 C 1099.358 687.592, 1098.766 685.338, 1098.120 682.696 C 1093.270 662.879, 1089.961 661.159, 1078.444 672.470 L 1069.821 680.939 1062.641 673.547 C 1051.348 661.919, 1048.941 662.254, 1045.001 676 C 1043.819 680.125, 1042.687 684.028, 1042.486 684.674 C 1042.212 685.557, 1040.680 685.503, 1036.311 684.460 C 1033.115 683.696, 1028.536 683.055, 1026.135 683.036 L 1021.770 683 1022.439 688.750 C 1023.357 696.633, 1025.630 704.323, 1029.038 711.075 L 1031.905 716.754 1028.550 717.298 C 1006.450 720.884, 1018.838 741.620, 1044.838 744.561 C 1048.320 744.955, 1051.321 745.778, 1051.507 746.389 C 1051.692 747, 1052.142 749.278, 1052.505 751.451 C 1052.950 754.110, 1054.364 756.599, 1056.833 759.068 L 1060.500 762.734 1058.275 771.617 C 1047.500 814.629, 1056.902 855.964, 1083.931 884.414 C 1087.544 888.216, 1089.825 890.955, 1089 890.500 C 1083.156 887.275, 1063.083 873.054, 1059.415 869.540 C 1058.818 868.968, 1056.378 866.925, 1053.994 865 C 1017.526 835.561, 1021.096 841.087, 1023.098 817.172 C 1025.930 783.331, 1014.334 759.174, 986.609 741.155 C 967.002 728.414, 965.509 728.790, 966.302 746.276 C 967.463 771.893, 973.176 783.374, 997.660 809.297 C 1004.794 816.849, 1010.806 824.249, 1012.787 827.911 L 1016.073 833.991 1006.287 826.669 C 991.721 815.773, 973.674 805.377, 957.500 798.565 C 927.813 786.063, 903.344 770.588, 888.675 755.038 L 882.090 748.058 883.660 742.779 C 886.031 734.806, 885.036 727.167, 880.129 715.683 C 877.858 710.367, 876 704.673, 876 703.029 C 876 692.938, 864.862 678.086, 852.761 672.039 C 843.084 667.203, 841 667.940, 841 676.198 C 841 679.928, 840.830 680.179, 838.750 679.517 C 826.628 675.658, 825.041 676.204, 825.015 684.250 L 825 689 820.500 689 L 816 689 816 693.058 C 816 713.615, 824.752 728.039, 840.202 732.947 C 842.238 733.594, 844.170 734.961, 844.495 735.984 C 846.492 742.277, 859.897 750.165, 869.658 750.792 C 876.815 751.251, 877.209 751.409, 879.802 754.863 C 882.135 757.970, 888.882 764.696, 896.330 771.340 C 897.524 772.405, 903.225 776.427, 909 780.278 C 918.964 786.923, 919.291 787.249, 915.394 786.652 C 898.472 784.059, 874.670 785.168, 856.750 789.385 C 851.431 790.636, 851 790.607, 851 788.994 C 851 787.840, 849.941 787.038, 847.870 786.624 C 839.727 784.995, 828.712 776.155, 817.812 762.500 C 804.313 745.589, 790.663 737.864, 766.500 733.461 C 755.056 731.375, 755 731.385, 755 735.514 C 755 737.446, 755.400 739.809, 755.888 740.764 C 756.377 741.719, 758.672 746.485, 760.989 751.355 C 774.317 779.374, 795.388 792.333, 827.795 792.442 L 845.089 792.500 839.795 794.132 C 823.061 799.291, 788.651 816.815, 770.500 829.421 C 768.850 830.567, 766.741 831.954, 765.813 832.503 C 762.640 834.378, 752.508 841.495, 743 848.526 C 681.171 894.251, 636.625 911.828, 575.500 914.619 L 562.500 915.212 560.500 912.084 C 558.218 908.515, 552.201 904, 549.727 904 C 542.583 904, 536.562 897.306, 528.356 880.239 C 518.321 859.366, 505.431 848.857, 482.134 842.554 C 474.284 840.430, 473.846 840.848, 475.046 849.320 C 479.647 881.810, 503.236 903.715, 539.879 909.525 C 542.287 909.907, 545.887 911.182, 547.879 912.360 L 551.500 914.500 545.058 914.803 C 523.486 915.816, 466 904.293, 466 898.956 C 466 894.262, 464.358 891.356, 458.058 884.897 C 450.142 876.782, 446.739 868.244, 444.520 850.928 C 440.248 817.598, 429.499 801.563, 402.251 787.875 C 383.431 778.420, 382.184 779.185, 384.302 798.878 C 389.193 844.353, 404.179 867.964, 438.269 883.900 C 443.092 886.155, 447.253 888, 447.516 888 C 448.239 888, 456.988 897.400, 456.994 898.184 C 457.001 899.004, 442.386 894.085, 424.500 887.248 C 391.289 874.554, 313.828 835.142, 318.916 833.527 C 327.297 830.867, 341.463 804.860, 338.597 797.393 C 337.862 795.477, 329.275 796.152, 323.461 798.581 C 318.540 800.637, 318.339 800.508, 317.670 794.865 C 314.712 769.882, 297.171 759.108, 290.726 778.314 C 290.483 779.038, 288.609 778.095, 285.914 775.894 C 270.424 763.237, 266.582 765.042, 266.527 785 L 266.500 794.500 260.500 794.137 C 254.387 793.768, 239.408 795.545, 235.145 797.146 C 231.991 798.330, 235.273 808.394, 242.289 819.049 L 243.967 821.599 238.634 824.299 C 220.724 833.368, 220.882 836.048, 239.978 847.048 C 241.207 847.756, 240.932 848.643, 238.339 852.321 C 229.427 864.965, 232.699 869, 251.865 869 L 257 869 257 875.114 L 257 881.227 261.750 880.561 C 267.583 879.743, 275.821 877.178, 278.474 875.355 C 280.253 874.132, 280.598 874.281, 281.974 876.868 C 289.005 890.092, 293.496 889.899, 302.167 876 C 307.961 866.713, 308.500 864.605, 308.500 851.250 C 308.500 844.512, 308.880 839, 309.344 839 C 309.808 839, 316.333 842.448, 323.844 846.662 C 340.509 856.012, 372.592 872.395, 387.500 879.167 C 393.550 881.915, 401.543 885.546, 405.263 887.236 C 413.858 891.140, 413.497 891.353, 400.627 889.968 C 368.138 886.470, 340.577 899.744, 321.680 927.991 C 314.032 939.423, 314.034 939.431, 325.083 941.461 C 356.551 947.244, 377.943 940.889, 403.847 918.060 C 415.291 907.975, 418.461 906.058, 428 903.459 C 431.575 902.484, 434.950 901.374, 435.500 900.992 C 436.050 900.609, 444.375 902.692, 454 905.621 C 512.352 923.374, 569.639 926.898, 622.500 915.985 C 652.056 909.883, 679.424 899.198, 704.431 883.996 C 716.278 876.795, 728.503 868.645, 739 860.952 C 788.883 824.391, 822.340 806.446, 857.067 797.627 C 870.031 794.334, 893.410 791.077, 894.714 792.381 C 895.055 792.721, 894.078 793, 892.543 793 C 872.838 793, 828.745 821.196, 810.836 845.250 C 806.124 851.579, 805.566 852, 801.894 852 C 794.939 852, 780 862.302, 780 867.098 C 780 867.583, 776.963 869.354, 773.250 871.034 C 757.125 878.331, 750 891.361, 750 913.556 L 750 921.744 754 922.384 L 758 923.024 758 928.512 C 758 934.744, 759.906 935.651, 766.182 932.406 C 769.401 930.741, 770.947 931.532, 770.985 934.861 C 771.008 936.912, 777.374 935.429, 784.267 931.767 C 797.067 924.967, 805.763 912.292, 806.963 898.689 C 807.462 893.030, 808.541 888.646, 810.456 884.500 C 813.739 877.391, 815.023 864.631, 813.056 858.671 C 811.469 853.860, 812.154 852.787, 825.842 838.656 C 861.013 802.346, 906.051 788.457, 943.500 802.373 C 948.680 804.298, 947.436 804.318, 935.413 802.506 C 903.155 797.644, 880.022 808.816, 866.945 835.573 C 860.860 848.024, 861.146 848.161, 880.057 841.860 C 898.601 835.681, 904.740 832.954, 914.573 826.532 C 919.483 823.325, 925.075 819.693, 927 818.460 C 943.907 807.633, 970.873 813.079, 1001.500 833.505 C 1010.691 839.635, 1016.345 844.048, 1035.258 859.854 C 1048.282 870.738, 1054.644 875.605, 1061.793 880.153 C 1066.104 882.896, 1065.380 883.399, 1059.906 881.465 C 1038.611 873.942, 1007.639 871.103, 989.569 875.017 C 985.797 875.834, 985.421 875.671, 980.330 871.019 C 973.668 864.930, 967.428 862.708, 958.274 863.165 L 951.574 863.500 947.577 859.161 C 938.878 849.716, 924.063 846.331, 911.750 850.975 C 904.700 853.634, 904.577 856.461, 911.141 864.885 C 913.623 868.069, 913.514 868.544, 909.969 870.013 C 898.463 874.779, 892.831 885.660, 899.085 891.041 L 903.202 894.583 899.544 899.375 C 893.945 906.710, 897.750 911.080, 911.044 912.584 L 916.799 913.236 915.400 916.586 C 914.630 918.428, 914 921.750, 914 923.968 L 914 928 922.479 928 C 939.412 928, 949.306 922.445, 955.570 909.422 C 958.441 903.451, 959.579 902, 961.388 902 C 970.570 902, 981.737 894.324, 984.703 885.974 C 986.835 879.971, 989.002 879.479, 1013 879.539 C 1034.311 879.593, 1053.639 884.267, 1076 894.774 L 1082.500 897.828 1070.500 897.929 C 1037.639 898.205, 1013.648 912.981, 994.675 944.631 C 988.130 955.549, 989.735 956.753, 1009.423 955.688 C 1035.585 954.273, 1052.397 947.133, 1067.902 930.852 C 1089.056 908.639, 1088.132 909.451, 1094.683 907.333 L 1100.865 905.334 1109.183 908.034 C 1129.327 914.573, 1133.962 915.934, 1141.500 917.522 C 1158.743 921.155, 1186.184 920.484, 1204.528 915.981 C 1212.303 914.072, 1217.339 914.023, 1408.120 914.012 L 1603.740 914 1614.620 916.551 C 1641.888 922.946, 1669.303 920.873, 1702.830 909.881 C 1721.293 903.828, 1728.135 905.970, 1740.582 921.699 C 1758.584 944.449, 1777.207 954.022, 1806.579 955.627 C 1827.334 956.761, 1828.435 956.018, 1822.097 945.167 C 1803.039 912.534, 1779.674 898.034, 1746.062 897.980 L 1733.500 897.959 1743.240 893.517 C 1768.861 881.832, 1796.581 876.870, 1819.273 879.907 C 1830.593 881.421, 1830.496 881.373, 1831.967 886.302 C 1834.257 893.975, 1843.775 900.881, 1853.333 901.804 C 1856.625 902.122, 1858.324 902.785, 1858.662 903.885 C 1863.440 919.468, 1873.896 926.914, 1892.239 927.797 L 1902.201 928.277 1901.736 922.889 C 1901.479 919.925, 1900.932 916.487, 1900.518 915.250 C 1899.834 913.203, 1900.081 913, 1903.258 913 C 1906.710 913, 1913.392 911.075, 1917.750 908.824 C 1920.996 907.148, 1920.576 903.635, 1916.491 898.285 L 1912.982 893.689 1916.241 891.719 C 1924.404 886.783, 1920.482 878.177, 1906.209 869.707 C 1903.101 867.863, 1903.004 867.637, 1904.457 865.627 C 1913.444 853.196, 1910.767 849.593, 1892.500 849.533 C 1880.750 849.494, 1875.261 851.624, 1869.115 858.607 L 1865.484 862.732 1856.492 863.189 C 1845.904 863.727, 1838.836 866.726, 1834.376 872.573 C 1831.976 875.720, 1831.241 876.097, 1828.564 875.554 C 1807.805 871.341, 1772.359 874.616, 1753.500 882.488 C 1752.400 882.947, 1755.775 880.033, 1761 876.011 C 1766.225 871.989, 1775.319 864.682, 1781.208 859.774 C 1840.146 810.655, 1866.546 802.626, 1898.505 824.101 C 1911.610 832.907, 1942.796 846, 1950.665 846 C 1955.302 846, 1946.743 827.856, 1937.904 818.948 C 1922.344 803.266, 1904.532 798.150, 1880.250 802.386 C 1869.786 804.212, 1868.450 804.292, 1871.979 802.884 C 1912.624 786.667, 1961.108 804.003, 1999.716 848.557 L 2004.932 854.577 2003.390 859.538 C 2001.335 866.149, 2002.175 875.247, 2005.580 883.257 C 2007.170 886.999, 2008.563 892.705, 2009.055 897.500 C 2010.167 908.318, 2013.249 915.126, 2021.146 924.208 C 2028.486 932.650, 2045.153 938.498, 2045.806 932.860 L 2046.112 930.219 2050.942 932.260 C 2057.495 935.028, 2059 934.277, 2059 928.238 C 2059 923.658, 2059.165 923.365, 2062.250 922.457 L 2065.500 921.500 2065.788 911.635 C 2066.410 890.276, 2053.910 870.211, 2039.864 870.022 C 2038.964 870.010, 2036.328 867.404, 2034.005 864.232 C 2028.428 856.615, 2023.333 853.076, 2015.911 851.666 C 2010.122 850.566, 2009.688 850.260, 2003.494 842.920 C 1985.335 821.402, 1962.075 804.875, 1938.500 796.740 L 1927.500 792.944 1936.500 793.412 C 1970.271 795.166, 2021.065 818.300, 2065 851.938 C 2154.518 920.475, 2244.084 938.487, 2351 909.454 C 2357.875 907.587, 2367.392 904.740, 2372.148 903.128 C 2377.654 901.261, 2381.144 900.544, 2381.753 901.153 C 2382.279 901.679, 2385.548 902.772, 2389.018 903.581 C 2397.572 905.577, 2403.217 908.841, 2412.405 917.104 C 2435.226 937.630, 2447.799 943.164, 2472 943.335 C 2498.017 943.519, 2502.878 940.786, 2495.882 929.905 C 2474.226 896.225, 2444.509 883.806, 2404.082 891.540 C 2401.189 892.094, 2400.776 892.298, 2427 880.202 C 2450.713 869.264, 2478.355 855.060, 2492.488 846.550 C 2495.730 844.597, 2498.755 843, 2499.211 843 C 2499.667 843, 2501.831 841.869, 2504.020 840.487 C 2506.611 838.852, 2508.019 838.416, 2508.055 839.237 C 2508.086 839.932, 2508.064 845.683, 2508.007 852.019 C 2507.769 878.432, 2524.045 895.118, 2533.094 877.738 L 2535.053 873.976 2538.221 875.614 C 2542.485 877.819, 2553.807 881, 2557.391 881 L 2560.289 881 2559.714 874.750 L 2559.139 868.500 2566.820 868.366 C 2583.665 868.071, 2585.348 866.260, 2579.361 854.868 C 2577.360 851.060, 2575.898 847.792, 2576.111 847.606 C 2576.325 847.421, 2578.525 846.035, 2581 844.527 C 2590.487 838.744, 2591.986 837.493, 2591.993 835.347 C 2592.001 832.984, 2585.094 827.882, 2576.807 824.128 L 2572.114 822.002 2575.576 816.751 C 2579.370 810.995, 2583.256 801.548, 2582.794 799.205 C 2582.316 796.789, 2574.297 794.910, 2561.871 794.303 L 2550.242 793.735 2549.805 782.618 C 2549.086 764.349, 2545.516 762.869, 2531.473 775.023 C 2528.884 777.264, 2526.617 778.950, 2526.436 778.770 C 2526.256 778.589, 2524.164 775.529, 2521.789 771.971 C 2514.425 760.939, 2505.064 769.580, 2499.387 792.649 C 2498.460 796.417, 2497.650 799.581, 2497.586 799.681 C 2497.523 799.781, 2494.337 798.993, 2490.507 797.931 C 2479.545 794.891, 2478 795.151, 2478 800.032 C 2478 809.398, 2486.832 825.968, 2494.964 831.859 L 2498.743 834.597 2486.622 841.531 C 2453.844 860.281, 2404.081 883.556, 2373.095 894.630 C 2358.864 899.716, 2357.696 899.752, 2361.907 894.974 C 2363.590 893.063, 2364.975 890.986, 2364.984 890.358 C 2364.993 889.731, 2366.219 888.911, 2367.708 888.537 C 2404.956 879.189, 2430.357 841.947, 2432.701 793.250 C 2433.357 779.635, 2433.656 780.131, 2426.285 782.608 C 2394.033 793.448, 2376.614 814.278, 2372.490 846.936 C 2369.594 869.876, 2365.498 880.330, 2355.442 890.453 C 2354.311 891.592, 2352.286 894.819, 2350.942 897.624 L 2348.500 902.724 2338 905.315 C 2311.939 911.746, 2260.997 918.110, 2261 914.934 C 2261 914.058, 2271.293 910, 2273.519 909.999 C 2303.549 909.979, 2333.967 884.249, 2340.519 853.325 C 2343.345 839.988, 2342.647 839.165, 2331.703 842.930 C 2306.993 851.432, 2295.862 861.537, 2286.489 883.977 C 2281.661 895.537, 2273.706 904, 2267.671 904 C 2266.761 904, 2260.653 906.492, 2254.096 909.537 C 2240.486 915.858, 2242.743 915.724, 2214 911.916 C 2185.876 908.191, 2163.696 901.396, 2137.500 888.481 C 2116.199 877.979, 2107.426 872.353, 2058 837.490 C 2031.122 818.532, 2011.317 807.413, 1987.631 797.984 L 1975.761 793.259 1990.131 792.752 C 2021.607 791.641, 2042.095 778.565, 2056.330 750.500 C 2064.258 734.869, 2063.573 731.752, 2052.500 733.081 C 2029.659 735.821, 2012.390 745.151, 1998.382 762.319 C 1985.434 778.189, 1975.937 784.916, 1964.500 786.319 C 1954.627 787.530, 1953.091 787.515, 1938.250 786.068 C 1925.663 784.840, 1903.023 785.717, 1897.230 787.657 C 1896.279 787.976, 1898.875 786.099, 1903 783.485 C 1914.762 776.034, 1926.170 766.734, 1933.450 758.665 L 1940.135 751.254 1947.360 750.791 C 1956.085 750.231, 1963.018 746.339, 1969.870 738.155 C 1972.244 735.320, 1975.008 733, 1976.013 733 C 1986.831 733, 1998.042 716.941, 1999.860 698.843 C 2000.924 688.250, 2000.621 687.640, 1994.750 688.577 L 1991 689.176 1991 683.468 L 1991 677.760 1985.250 678.288 C 1982.088 678.579, 1978.487 679.136, 1977.250 679.525 C 1975.223 680.163, 1974.999 679.899, 1974.986 676.867 C 1974.949 667.625, 1971.401 666.795, 1961.119 673.622 C 1948.286 682.142, 1942.212 691.056, 1939.985 704.633 C 1939.522 707.456, 1937.426 713.081, 1935.329 717.133 C 1930.800 725.880, 1929.636 741.730, 1933.231 745.703 C 1934.898 747.545, 1934.660 747.914, 1926.731 755.784 C 1909.291 773.094, 1893.004 783.528, 1861.777 797.398 C 1845.933 804.436, 1824.651 816.355, 1812.659 824.908 C 1808.346 827.984, 1803.897 831.158, 1802.773 831.962 C 1796.808 836.229, 1807.129 821.690, 1819.496 808.408 C 1845.791 780.166, 1850.890 768.585, 1850.164 738.750 C 1849.936 729.385, 1844.216 730.485, 1826.500 743.300 C 1799.918 762.529, 1791.147 783.671, 1794.009 821.614 L 1795.275 838.405 1793.054 839.953 C 1790.472 841.751, 1781.266 849.252, 1768.500 859.959 C 1763.550 864.110, 1757.025 869.341, 1754 871.583 C 1738.466 883.096, 1734.361 885.987, 1730.602 888.061 L 1726.500 890.324 1732.531 883.912 C 1760.671 853.994, 1769.052 815.121, 1757.343 768.830 L 1755.656 762.160 1758.864 759.461 C 1762.625 756.296, 1765 752.101, 1765 748.621 C 1765 746.405, 1765.611 746.018, 1770.750 744.973 C 1784.564 742.165, 1805.047 728.819, 1802.444 724.324 C 1801.012 721.853, 1791.314 717, 1787.806 717 L 1784.971 717 1787.944 711.111 C 1790.364 706.317, 1795 688.565, 1795 684.093 C 1795 682.271, 1786.211 682.922, 1776.936 685.430 C 1774.514 686.085, 1774.305 685.834, 1773.163 680.885 C 1771.674 674.434, 1767.082 664, 1765.731 664 C 1762.754 664, 1747 678.301, 1747 681.005 C 1747 681.370, 1743.190 677.918, 1738.533 673.334 C 1727.073 662.053, 1717 668.278, 1717 686.642 C 1717 687.643, 1716.444 688, 1715.468 687.626 C 1693.015 679.010, 1685.529 684.578, 1693.600 703.893 C 1695.290 707.938, 1695.302 707.920, 1690.036 709.103 C 1684.650 710.313, 1676.953 713.959, 1676.324 715.597 C 1675.192 718.548, 1690.732 735.828, 1696.031 737.510 C 1697.175 737.873, 1697.964 738.469, 1697.786 738.835 C 1697.607 739.201, 1695.712 742.930, 1693.575 747.122 C 1691.437 751.314, 1689.957 755.445, 1690.286 756.302 C 1691.893 760.491, 1719.087 760.774, 1728.990 756.705 L 1735.480 754.039 1737.704 756.881 C 1738.927 758.444, 1742.125 760.668, 1744.811 761.824 L 1749.695 763.924 1752.290 773.712 C 1768.365 834.346, 1737.047 893.333, 1681 907.987 C 1662.737 912.762, 1629.553 914.593, 1645.584 909.942 C 1708.214 891.768, 1731.134 844.844, 1704.779 788.750 C 1699.238 776.956, 1698.620 777.034, 1688.887 790.762 C 1669.887 817.563, 1665.831 828.345, 1664.536 855.500 C 1662.488 898.452, 1657.770 903.625, 1616.233 908.460 C 1609.832 909.205, 1610.732 912.110, 1608.035 882 C 1606.829 868.525, 1604.545 845.125, 1602.962 830 C 1598.059 783.185, 1598.141 784.938, 1600.750 782.335 C 1602.379 780.711, 1603.004 778.905, 1603.015 775.795 C 1603.040 768.351, 1609.052 746.619, 1612.414 741.820 C 1615.848 736.916, 1613.367 728, 1608.568 728 C 1607.293 728, 1604.844 727.719, 1603.125 727.375 L 1600 726.750 1600 674.875 L 1600 623 1603 623 C 1607.593 623, 1610 619.930, 1610 614.073 C 1610 605.238, 1609.223 605, 1580.436 605 L 1556.142 605 1554.964 599.250 C 1553.100 590.154, 1549.467 583.534, 1543.439 578.247 C 1538.204 573.657, 1538.025 573.329, 1538.013 568.332 C 1537.992 559.899, 1538.126 560, 1526.893 560 L 1517 560 1517 556.968 C 1517 537.081, 1489.749 506.982, 1464.066 498.502 C 1457.890 496.463, 1457.569 496.192, 1456.066 491.776 C 1453.382 483.890, 1446.220 478.406, 1437.213 477.339 C 1432.419 476.771, 1432.198 476.607, 1431.646 473.209 C 1430.999 469.216, 1425.614 463, 1422.804 463 C 1420.887 463, 1420.321 460.538, 1422 459.500 C 1423.555 458.539, 1423.183 452.755, 1421.151 446.339 C 1414.990 426.876, 1407.765 414.208, 1405.703 419.250 M 1406.700 432.698 C 1403.944 439.048, 1400.353 449.308, 1399.683 452.750 L 1399.050 456 1406.943 456 C 1419.446 456, 1419.273 457.185, 1410.205 433.698 L 1408.351 428.896 1406.700 432.698 M 1397.619 467.991 C 1382.447 472.762, 1387.406 477, 1408.161 477 L 1427.135 477 1426.465 474.750 C 1424.483 468.096, 1408.899 464.444, 1397.619 467.991 M 1374.197 485.131 C 1370.453 486.985, 1365 492.973, 1365 495.232 C 1365 495.654, 1384.350 496, 1408 496 C 1455.755 496, 1453.847 496.312, 1447.852 489.484 C 1442.137 482.975, 1442.285 483, 1408.800 483.001 C 1379.899 483.002, 1378.301 483.100, 1374.197 485.131 M 1365.500 501.669 C 1338.275 505.538, 1305.103 536.838, 1305.006 558.750 C 1305.001 559.742, 1326.380 560, 1408.579 560 L 1512.159 560 1511.529 556.750 C 1507.566 536.320, 1483.603 511.315, 1460.280 503.274 C 1455.680 501.689, 1374.982 500.322, 1365.500 501.669 M 1283.361 566.502 C 1283.044 567.328, 1283.066 569.128, 1283.411 570.502 L 1284.038 573 1408.519 573 L 1533 573 1533 569 L 1533 565 1408.469 565 C 1298.614 565, 1283.869 565.177, 1283.361 566.502 M 1283.323 578.808 C 1277.210 579.685, 1268.605 591.305, 1267.364 600.359 L 1266.728 605 1328.677 605 L 1390.626 605 1393.210 602.250 C 1396.878 598.347, 1403.683 587.490, 1405.042 583.373 C 1406.600 578.651, 1408.720 579.306, 1411.921 585.500 C 1414.761 590.994, 1417.800 595.535, 1422.453 601.232 L 1425.500 604.964 1487.881 604.982 L 1550.262 605 1549.688 601.465 C 1548.376 593.377, 1542.714 584.521, 1536.043 580.121 C 1533.823 578.656, 1293.095 577.405, 1283.323 578.808 M 1407.177 593.511 C 1400.805 607.496, 1384.112 620.544, 1358 631.950 C 1331.268 643.626, 1321.084 653.004, 1315.460 671.122 L 1313.716 676.743 1305.253 678.406 C 1279.581 683.450, 1258.215 705.315, 1258.012 726.750 C 1257.977 730.373, 1262.950 727.895, 1264.032 723.750 C 1267.873 709.040, 1268.556 707.530, 1274.610 700.371 C 1283.179 690.239, 1295.107 685.021, 1309.731 685.008 C 1317.898 685, 1317.966 684.979, 1318.552 682.250 C 1323.323 660.015, 1332.355 649.975, 1357.923 638.490 C 1386.063 625.850, 1396.564 618.393, 1405.441 604.750 C 1407.993 600.827, 1409.424 601.293, 1413.449 607.357 C 1421.650 619.712, 1430.042 625.529, 1456.881 637.460 C 1482.663 648.921, 1494.631 661.450, 1497.843 680.344 L 1498.550 684.500 1509.206 685.106 C 1530.766 686.333, 1545.497 698.078, 1550.595 718.105 C 1552.753 726.583, 1553.606 728, 1556.554 728 C 1558.756 728, 1558.964 727.687, 1558.384 725.250 C 1552.273 699.548, 1538.170 684.229, 1516.271 679.504 C 1501.702 676.360, 1502.653 676.806, 1501.806 672.728 C 1500.299 665.477, 1494.936 656.692, 1487.621 649.492 C 1480.169 642.159, 1480.771 642.507, 1448.811 627.080 C 1428.676 617.362, 1416.878 607.253, 1409.838 593.687 L 1408.378 590.874 1407.177 593.511 M 1212.655 611.829 C 1207.078 617.992, 1207.189 618, 1294.515 618 L 1374.161 618 1379.581 614.403 C 1382.561 612.424, 1385 610.624, 1385 610.403 C 1385 608.722, 1214.187 610.136, 1212.655 611.829 M 1432 610.473 C 1432 610.734, 1434.356 612.534, 1437.237 614.473 L 1442.473 618 1521.802 618 C 1608.664 618, 1610.062 617.891, 1603.171 611.655 C 1601.419 610.069, 1432 608.899, 1432 610.473 M 1408.033 611.601 C 1407.906 615.800, 1388.023 631.325, 1375.470 637.026 C 1335.852 655.021, 1327.399 662.481, 1324.398 682.103 C 1323.235 689.710, 1323.162 689.758, 1312.712 689.864 C 1290.231 690.091, 1271.971 705.093, 1269.547 725.328 C 1268.966 730.175, 1264.618 740.692, 1262.588 742.159 C 1260.635 743.571, 1254.186 767.285, 1253.567 775.331 C 1253.326 778.473, 1252.462 780.943, 1251.098 782.396 C 1248.446 785.219, 1248.432 784.622, 1251.967 819.352 C 1253.599 835.383, 1255.414 853.450, 1256 859.500 C 1256.586 865.550, 1257.727 877.025, 1258.538 885 C 1259.348 892.975, 1260.120 901.525, 1260.255 904 L 1260.500 908.500 1407.980 908.500 L 1555.461 908.500 1558.179 881 C 1559.674 865.875, 1562.080 841.818, 1563.527 827.540 C 1567.582 787.518, 1567.675 784.884, 1565.123 782.595 C 1563.548 781.182, 1562.997 779.504, 1562.988 776.095 C 1562.969 768.448, 1555.757 743.704, 1553.062 742.038 C 1551.580 741.123, 1548.315 732.104, 1546.350 723.500 C 1541.420 701.917, 1526.193 689.989, 1503.021 689.557 L 1494.542 689.399 1492.471 681.950 C 1486.818 661.613, 1475.372 650.789, 1448.188 640.074 C 1432.270 633.800, 1419.404 624.662, 1410.068 613 C 1408.967 611.625, 1408.052 610.996, 1408.033 611.601 M 1222 675.566 L 1222 728.133 1224.750 727.816 L 1227.500 727.500 1227.759 675.250 L 1228.018 623 1225.009 623 L 1222 623 1222 675.566 M 1233.897 663.070 C 1233.840 685.032, 1233.745 708.513, 1233.687 715.250 L 1233.581 727.500 1242.456 727.791 C 1251.981 728.104, 1252.953 727.662, 1252.988 723 C 1253.148 701.932, 1282.444 673, 1303.617 673 C 1307.018 673, 1310 671.281, 1310 669.320 C 1310 655.617, 1337.482 630.686, 1358.365 625.445 C 1366.511 623.400, 1355.985 622.988, 1297.500 623.061 L 1234 623.140 1233.897 663.070 M 1458.500 625.411 C 1484.546 635.485, 1505.848 654.579, 1506.012 668 C 1506.050 671.041, 1507.783 672, 1516.048 673.552 C 1539.800 678.013, 1557.286 695.406, 1562.909 720.166 L 1564.575 727.500 1573.538 727.500 L 1582.500 727.500 1582.500 675.500 L 1582.500 623.500 1517.500 623.295 L 1452.500 623.090 1458.500 625.411 M 1588.484 624.183 C 1588.207 624.907, 1588.097 648.450, 1588.240 676.500 L 1588.500 727.500 1591.500 727.500 L 1594.500 727.500 1594.500 675.500 L 1594.500 623.500 1591.744 623.183 C 1590.136 622.998, 1588.779 623.414, 1588.484 624.183 M 1050.652 673.290 C 1043.980 689.258, 1046.443 712.346, 1056.062 724 L 1058.125 726.500 1057.386 724 C 1055.158 716.461, 1057.842 701.795, 1062.913 693.798 C 1067.986 685.799, 1067.757 684.653, 1059.453 676.500 C 1052.127 669.307, 1052.291 669.367, 1050.652 673.290 M 1726.204 673.615 C 1714.056 697.523, 1723.744 734, 1742.241 734 C 1762.923 734, 1758.711 699.637, 1735.207 676.615 L 1728.178 669.730 1726.204 673.615 M 1756.159 677.469 C 1748.468 685.566, 1748.461 685.596, 1752.726 692.119 C 1758.314 700.665, 1761.373 715.392, 1759.196 723.261 C 1757.826 728.212, 1759.094 727.267, 1762.921 720.485 C 1769.907 708.108, 1771.831 690.602, 1767.617 677.762 C 1764.725 668.950, 1764.263 668.938, 1756.159 677.469 M 1078.894 679.250 C 1059.493 699.630, 1054.794 726.272, 1069.348 733.379 C 1086.340 741.677, 1102.031 707.488, 1093.054 681.723 C 1088.496 668.642, 1088.922 668.716, 1078.894 679.250 M 846 678.892 C 846 682.187, 846.375 682.877, 848.450 683.398 C 855.051 685.055, 869 702.625, 869 709.282 C 869 710.960, 869.230 711.054, 870.585 709.930 C 876.837 704.741, 864.042 683.187, 850.955 676.864 C 845.905 674.424, 846 674.385, 846 678.892 M 1962.500 678.427 C 1952.996 684.750, 1947.961 691.914, 1945.808 702.178 C 1943.921 711.175, 1945.693 712.811, 1948.677 704.826 C 1951.654 696.858, 1959.764 687.312, 1965.910 684.541 C 1969.669 682.846, 1970 682.384, 1970 678.848 C 1970 674.120, 1969.055 674.067, 1962.500 678.427 M 829.899 686.122 C 829.209 709.121, 841.917 727.574, 857.017 725.498 C 872.554 723.361, 863.755 696.171, 844.596 687.119 C 834.119 682.169, 830.026 681.891, 829.899 686.122 M 1975.892 685.354 C 1958.363 692.565, 1947.777 709.391, 1952.935 721.843 C 1955.814 728.793, 1970.253 726.177, 1976.908 717.500 C 1978.595 715.300, 1980.416 712.973, 1980.954 712.329 C 1982.820 710.094, 1986 695.588, 1986 689.312 C 1986 681.847, 1985.189 681.530, 1975.892 685.354 M 1027.655 691.735 C 1027.997 694.356, 1028.590 696.950, 1028.973 697.500 C 1029.356 698.050, 1030.489 701.612, 1031.491 705.415 C 1033.547 713.224, 1041.150 722.098, 1051.987 729.335 C 1057.214 732.827, 1061.877 734.703, 1057.220 731.442 C 1049.650 726.139, 1042.312 708.877, 1042.082 695.830 L 1042 691.161 1037.250 689.669 C 1034.638 688.849, 1031.270 687.906, 1029.767 687.574 L 1027.034 686.970 1027.655 691.735 M 1110 689.868 C 1099.899 692.149, 1100 692.051, 1100 699.572 C 1100 712.640, 1093.828 727.783, 1086.070 733.750 C 1080.680 737.896, 1083.118 738, 1091.533 733.984 C 1102.970 728.526, 1115.497 711.623, 1119.421 696.356 C 1121.899 686.712, 1122.412 687.065, 1110 689.868 M 1696.292 692.818 C 1698.240 709.263, 1712.551 728.592, 1727.535 735.015 C 1733.841 737.718, 1733.916 737.609, 1729.093 732.750 C 1721.083 724.680, 1716.021 710.948, 1716.006 697.250 C 1716.003 694.362, 1715.832 692, 1715.627 692 C 1715.421 692, 1711.709 691.107, 1707.377 690.015 C 1695.650 687.061, 1695.611 687.071, 1696.292 692.818 M 1783.500 688.525 C 1782.950 688.727, 1780.588 689.384, 1778.250 689.985 L 1774 691.077 1774 697.357 C 1774 707.576, 1768.443 722.477, 1762.600 727.924 C 1758.214 732.014, 1759.701 732.251, 1765.750 728.426 C 1778.990 720.055, 1785.845 709.529, 1788.571 693.383 C 1788.839 691.797, 1789.256 689.938, 1789.498 689.250 C 1789.913 688.068, 1786.025 687.598, 1783.500 688.525 M 821.048 700.295 C 822.187 711.302, 827.369 720.028, 836 725.472 C 840.180 728.109, 845 729.473, 845 728.019 C 845 727.459, 844.591 727, 844.092 727 C 839.651 727, 829.007 710.659, 826.646 700.218 C 824.553 690.958, 820.088 691.019, 821.048 700.295 M 1989.577 696.250 C 1989.323 697.487, 1988.833 700.245, 1988.489 702.377 C 1987.084 711.064, 1981.135 720.547, 1973.500 726.269 L 1969.500 729.267 1972.830 728.642 C 1986.115 726.151, 1995.940 712.200, 1995.994 695.750 C 1996.004 692.900, 1990.171 693.354, 1989.577 696.250 M 1115.889 715.679 C 1108.971 726.874, 1100.440 734.809, 1091.270 738.580 L 1085.500 740.953 1089.500 740.978 C 1103.108 741.063, 1119.424 733.834, 1128.292 723.791 C 1134.593 716.655, 1134.519 716.419, 1125.055 713.609 C 1118.046 711.527, 1118.522 711.420, 1115.889 715.679 M 1692 713.620 C 1691.175 713.900, 1688.587 714.813, 1686.249 715.648 L 1681.998 717.166 1686.589 723.010 C 1691.231 728.919, 1696.465 733.081, 1701.013 734.480 C 1702.381 734.901, 1703.950 735.589, 1704.500 736.009 C 1706.293 737.379, 1721.850 741.001, 1725.724 740.951 L 1729.500 740.902 1723.064 737.701 C 1715.865 734.121, 1705.395 724.265, 1701.751 717.638 C 1699.467 713.486, 1696.274 712.170, 1692 713.620 M 872.183 716.279 C 868.174 721.111, 867.737 725.133, 870.870 728.382 C 872.523 730.097, 874.911 733.750, 876.176 736.500 L 878.476 741.500 878.790 735.663 C 879.253 727.079, 874.585 713.385, 872.183 716.279 M 1939.595 722.113 C 1935.502 733.157, 1936.007 746.168, 1940.168 736.873 C 1941.231 734.499, 1943.203 731.112, 1944.550 729.345 C 1947.515 725.458, 1947.636 722.555, 1945.011 718.250 C 1942.436 714.027, 1942.649 713.876, 1939.595 722.113 M 1775.336 726.108 C 1771.576 729.380, 1765.506 733.567, 1761.848 735.413 C 1755.437 738.646, 1755.284 738.808, 1757.645 739.884 C 1764.716 743.106, 1779.319 739.106, 1790.250 730.953 C 1797.930 725.225, 1797.789 724.777, 1787.336 721.686 L 1782.172 720.159 1775.336 726.108 M 1025.750 723.160 C 1019.951 725.718, 1019.930 726.010, 1025.250 730.266 C 1035.378 738.367, 1045.923 741.785, 1056 740.232 L 1061.500 739.385 1054.500 735.789 C 1050.650 733.811, 1044.729 729.675, 1041.343 726.596 C 1034.457 720.338, 1032.918 719.999, 1025.750 723.160 M 853.500 731.713 C 849.713 732.624, 849.890 733.733, 854.463 737.759 C 860.051 742.677, 865.033 745.137, 870.704 745.776 L 874.988 746.259 871.894 740.379 C 867.216 731.489, 862.895 729.453, 853.500 731.713 M 1949.896 732.212 C 1948.224 733.562, 1944.761 739.869, 1943.561 743.750 C 1942.651 746.692, 1944.966 746.733, 1952.518 743.908 C 1958.797 741.558, 1966.982 734.582, 1965.361 732.961 C 1963.701 731.301, 1951.742 730.722, 1949.896 732.212 M 1208.667 733.667 C 1205.656 736.677, 1208.098 737, 1233.883 737 C 1258.926 737, 1259.784 736.935, 1260.290 735 C 1260.818 732.979, 1210.650 731.684, 1208.667 733.667 M 1556 734.983 C 1556 736.954, 1556.594 737, 1582.073 737 C 1606.367 737, 1608.124 736.881, 1607.810 735.250 C 1607.246 732.316, 1556 732.052, 1556 734.983 M 761 738.417 C 761 756.965, 799.500 788.263, 821.910 787.932 C 826.936 787.858, 827.114 788.009, 817.500 784.182 C 806.303 779.723, 791 768.298, 791 764.397 C 791 760.814, 792.710 761.407, 801.500 768.038 C 813.289 776.930, 832.754 786.113, 824.554 778.914 C 822.467 777.081, 817.166 771.144, 812.773 765.720 C 803.656 754.462, 799.729 751.263, 788.500 745.944 C 778.974 741.433, 761 736.513, 761 738.417 M 2047.500 739.185 C 2034.089 742.467, 2023.396 747.013, 2016.500 752.366 C 2011.568 756.195, 2011.786 755.973, 2004.549 764.500 C 2001.282 768.350, 1996.559 773.686, 1994.054 776.359 C 1990.105 780.571, 1989.832 781.121, 1992 780.493 C 1996.749 779.118, 2010.159 771.690, 2015.796 767.312 C 2021.513 762.873, 2025.500 761.984, 2025.500 765.149 C 2025.500 768.627, 2007.030 780.912, 1994.548 785.735 L 1988.500 788.073 1995.067 787.591 C 2019.195 785.821, 2038.890 771.605, 2051.868 746.593 C 2056.848 736.993, 2056.799 736.910, 2047.500 739.185 M 971 742.852 C 971 764.015, 981.224 785.037, 1000.920 804.371 L 1010.976 814.242 1008.960 808.371 C 1006.978 802.599, 999.929 788.037, 997.983 785.695 C 988.766 774.602, 986.061 769, 989.922 769 C 994.720 769, 1007.600 788.300, 1013.947 805 L 1017.938 815.500 1017.969 804.932 C 1018.043 779.595, 1001.417 754.380, 976.215 741.609 L 971 738.966 971 742.852 M 1839.429 741.589 C 1814.962 754.598, 1798.910 780.031, 1799.092 805.500 L 1799.149 813.500 1801.429 807 C 1807.795 788.850, 1820.619 770, 1826.600 770 C 1829.374 770, 1829.772 772.115, 1827.372 774.106 C 1824.337 776.625, 1813.720 793.327, 1809.999 801.434 C 1806.190 809.735, 1804.073 816.330, 1805.805 814.500 C 1837.197 781.326, 1843.393 770.930, 1844.689 749.250 C 1845.026 743.612, 1845.076 739, 1844.800 739 C 1844.524 739, 1842.107 740.165, 1839.429 741.589 M 1106 742.135 C 1099.643 744.326, 1084.215 746.300, 1080.225 745.434 L 1077.500 744.842 1080 746.990 C 1087.357 753.312, 1115.232 758.106, 1119.542 753.791 C 1121.124 752.209, 1114.272 739.662, 1112.076 740.120 C 1111.759 740.186, 1109.025 741.093, 1106 742.135 M 1700.339 744.879 C 1693.986 754.260, 1694.591 754.963, 1709.040 754.986 C 1719.600 755.003, 1728.067 752.884, 1734.155 748.699 L 1738.810 745.500 1728.155 744.870 C 1722.295 744.523, 1714.343 743.344, 1710.484 742.249 L 1703.469 740.257 1700.339 744.879 M 1065 742.016 C 1064.175 742.557, 1061.807 743.469, 1059.738 744.042 C 1055.104 745.325, 1055.349 750.223, 1060.323 755.750 C 1064.319 760.189, 1076 756.724, 1076 751.100 C 1076 749.785, 1067.861 740.937, 1066.723 741.015 C 1066.600 741.024, 1065.825 741.474, 1065 742.016 M 1744.750 745.524 C 1740.199 749.645, 1740.186 749.675, 1741.680 752.758 C 1745.250 760.129, 1755.451 759.952, 1758.579 752.466 C 1760.953 746.783, 1760.480 745.699, 1754.643 743.443 L 1749.321 741.386 1744.750 745.524 M 1220.423 743 L 1211.345 743.500 1212.675 746.750 L 1214.006 750 1233.528 750 L 1253.050 750 1254.025 747.435 C 1254.561 746.024, 1255 744.474, 1255 743.990 C 1255 742.931, 1233.074 742.303, 1220.423 743 M 1561 743.440 C 1561 744.226, 1561.439 746.024, 1561.975 747.435 L 1562.950 750 1582.867 750 L 1602.783 750 1603.387 747.593 C 1603.720 746.269, 1604.226 744.574, 1604.513 743.825 C 1604.942 742.708, 1601.107 742.425, 1583.018 742.238 C 1564.489 742.047, 1561 742.237, 1561 743.440 M 1215.411 756.629 C 1215.755 757.525, 1216.531 760.225, 1217.137 762.629 L 1218.237 767 1233.496 767 L 1248.754 767 1250.265 761 L 1251.777 755 1233.281 755 C 1216.602 755, 1214.847 755.160, 1215.411 756.629 M 1565 755.924 C 1565 756.432, 1565.527 759.132, 1566.172 761.924 L 1567.343 767 1582.653 767 L 1597.962 767 1598.550 764.250 C 1598.874 762.737, 1599.557 760.466, 1600.069 759.203 C 1600.581 757.940, 1601 756.477, 1601 755.953 C 1601 755.384, 1593.741 755, 1583 755 C 1572.658 755, 1565 755.393, 1565 755.924 M 297.678 775.250 C 293.189 781.272, 292.908 783.931, 296.248 788.825 C 302.829 798.469, 307.875 812.527, 308.083 821.799 L 308.167 825.500 310.833 820 C 318.709 803.757, 306.751 763.082, 297.678 775.250 M 2511.629 776.250 C 2501.578 793.648, 2499.949 807.631, 2506.357 821.500 L 2508.667 826.500 2509.263 818.500 C 2510.003 808.567, 2514.072 797.977, 2521.512 786.621 C 2523.247 783.974, 2522.034 779.855, 2518.018 774.750 C 2515.148 771.102, 2514.518 771.250, 2511.629 776.250 M 1219.015 774.750 C 1219.051 778.782, 1220.132 779.071, 1234.078 778.780 L 1247.500 778.500 1247.816 775.750 L 1248.133 773 1233.566 773 C 1220.354 773, 1219.001 773.163, 1219.015 774.750 M 1568.184 775.750 L 1568.500 778.500 1582.500 778.500 L 1596.500 778.500 1596.816 775.750 L 1597.133 773 1582.500 773 L 1567.867 773 1568.184 775.750 M 2538.885 775.963 C 2525.856 784.073, 2512.788 805.893, 2513.110 819 L 2513.172 821.500 2513.975 818.841 C 2516.754 809.644, 2530.727 797.922, 2541.750 795.543 C 2545.375 794.760, 2545.533 794.072, 2545.103 781 C 2544.832 772.772, 2544.476 772.483, 2538.885 775.963 M 271.607 775.582 C 270.857 777.536, 270.829 790.770, 271.569 793.500 C 271.949 794.902, 273.916 796.067, 278.144 797.396 C 289.101 800.839, 298.248 809.032, 302.082 818.836 C 304.155 824.135, 304.528 822.145, 303.010 813.886 C 300.480 800.118, 286.235 779.632, 276.305 775.483 C 271.982 773.677, 272.341 773.669, 271.607 775.582 M 1224.420 785.129 C 1223.715 786.270, 1223.435 788.637, 1220.584 817.500 C 1219.715 826.300, 1218.557 837.550, 1218.011 842.500 C 1217.465 847.450, 1215.868 863.425, 1214.463 878 C 1213.058 892.575, 1211.694 905.224, 1211.432 906.108 C 1210.780 908.307, 1217.043 908.980, 1238.250 908.991 L 1255 909 1255 906.303 C 1255 899.452, 1243.272 786.250, 1242.420 784.870 C 1241.606 783.554, 1225.248 783.789, 1224.420 785.129 M 1573.574 784.880 C 1573.275 785.365, 1572.583 790.652, 1572.038 796.630 C 1570.456 813.968, 1567.186 847.289, 1565.574 862.500 C 1563.660 880.562, 1560.984 907.285, 1560.993 908.250 C 1560.997 908.663, 1570.900 909, 1583 909 C 1603.286 909, 1605 908.864, 1604.999 907.250 C 1604.998 906.288, 1604.098 896.950, 1602.998 886.500 C 1601.899 876.050, 1599.424 851.525, 1597.500 832 C 1595.576 812.475, 1593.738 793.971, 1593.417 790.879 L 1592.834 785.259 1587.667 784.638 C 1580.291 783.752, 1574.207 783.857, 1573.574 784.880 M 388.655 793.804 C 391.861 830.384, 405.409 857.633, 427.250 871.429 C 433.570 875.421, 434.707 874.998, 429.912 870.437 C 417.702 858.822, 400.682 819, 407.928 819 C 409.838 819, 411.438 822.280, 415.002 833.500 C 419.300 847.032, 431.391 865.417, 440.687 872.558 L 443.874 875.006 442.064 868.253 C 441.069 864.539, 439.723 856.775, 439.074 851 C 435.611 820.188, 420.026 800.226, 390.742 789.092 L 388.156 788.109 388.655 793.804 M 1116.466 791.618 C 1097.260 836.252, 1105.357 869.068, 1140.702 889.835 L 1145.905 892.892 1140.878 886.696 C 1129.775 873.009, 1124.556 857.976, 1123.366 836.250 L 1122.695 824 1125.208 824 C 1127.710 824, 1127.724 824.051, 1128.284 835.250 C 1129.174 853.047, 1133.488 865.605, 1143.763 880.307 C 1150.194 889.510, 1150.190 889.510, 1148.436 880.500 C 1147.687 876.650, 1147.048 869.225, 1147.017 864 C 1146.851 835.876, 1136.962 809.361, 1118.904 788.618 C 1118.482 788.134, 1117.385 789.484, 1116.466 791.618 M 2419.360 791.915 C 2392.307 804.743, 2380.286 822.100, 2377.058 853 C 2376.454 858.775, 2375.311 865.954, 2374.517 868.953 C 2372.650 876.008, 2372.894 876.088, 2378.764 870.333 C 2388.979 860.318, 2398.050 844.678, 2403.693 827.349 C 2406.268 819.442, 2411 814.938, 2411 820.395 C 2411 829.640, 2397.257 859.049, 2388.261 869.055 C 2383.104 874.791, 2383.721 875.282, 2390.469 870.813 C 2408.230 859.048, 2420.897 837.095, 2425.408 810.258 C 2427.046 800.512, 2428.432 787.985, 2427.866 788.028 C 2427.665 788.043, 2423.837 789.792, 2419.360 791.915 M 1695.894 791.281 C 1675.386 819.604, 1671.417 830.194, 1669.952 860.500 C 1669.447 870.950, 1668.608 881.300, 1668.089 883.500 L 1667.144 887.500 1670.143 884 C 1680.062 872.423, 1686.460 855.915, 1688.205 837.397 C 1689.214 826.690, 1689.613 825, 1691.128 825 C 1693.925 825, 1694.087 826.169, 1693.085 839.182 C 1691.470 860.181, 1687.404 871.189, 1675.289 887.368 L 1671.643 892.236 1674.614 890.700 C 1708.801 873.021, 1718.835 835.858, 1700.789 793.750 C 1698.485 788.373, 1698.129 788.194, 1695.894 791.281 M 2549.500 798.646 C 2518.605 802.001, 2503.619 835.848, 2531.354 839.632 C 2546.799 841.740, 2577 816.951, 2577 802.165 C 2577 799.939, 2558.913 797.624, 2549.500 798.646 M 247.500 799.497 C 246.950 799.684, 244.815 800.118, 242.755 800.462 L 239.010 801.089 240.551 804.794 C 250.208 828.026, 272.634 843.686, 289.760 839.156 C 310.305 833.722, 297.244 804.751, 272.114 800.015 C 267.144 799.079, 249.809 798.714, 247.500 799.497 M 323.943 803.575 L 318.387 806.112 317.282 812.565 C 316.674 816.114, 314.805 821.807, 313.129 825.217 C 309.607 832.381, 309.783 833.089, 314.423 830.436 C 323.285 825.369, 330.754 814.786, 332.551 804.750 C 333.386 800.086, 332 799.897, 323.943 803.575 M 2483.460 804.715 C 2484.230 808.905, 2489.141 819.383, 2491.796 822.501 C 2496.132 827.593, 2508.491 834.896, 2506.841 831.391 C 2506.610 830.901, 2504.974 827.575, 2503.205 824 C 2501.436 820.425, 2499.450 814.909, 2498.792 811.742 C 2497.496 805.502, 2494.303 802.921, 2486.132 801.511 L 2482.764 800.930 2483.460 804.715 M 913.500 807.102 C 897.568 809.030, 872 828.307, 872 838.391 C 872 839.169, 890.324 832.661, 898 829.157 C 904.687 826.104, 925.303 813, 923.418 813 C 920.477 813, 910.674 816.608, 904.173 820.083 C 893.053 826.028, 886.178 824.107, 896.252 817.870 C 902.918 813.743, 904.968 812.795, 913.384 809.949 C 922.278 806.942, 922.315 806.035, 913.500 807.102 M 1892 806.690 C 1905.166 808.888, 1924 817.939, 1924 822.068 C 1924 824.801, 1921.921 824.489, 1914.183 820.592 C 1907.952 817.454, 1895.952 813, 1893.729 813 C 1888.990 813, 1920.492 830.465, 1933.533 835.068 C 1944.050 838.780, 1944.446 838.766, 1942.377 834.750 C 1933.714 817.930, 1913.254 805.650, 1894.701 806.136 C 1891.840 806.211, 1890.625 806.460, 1892 806.690 M 239.932 829.280 C 231.316 834.263, 230.481 834.821, 231.008 835.252 C 234.110 837.791, 243.854 844, 244.736 844 C 245.368 844, 247.374 844.877, 249.193 845.949 C 259.656 852.116, 275.334 852.657, 286.765 847.245 C 293.582 844.017, 294.018 843.131, 288.482 843.755 C 277.928 844.944, 263.430 839.593, 253.692 830.913 C 247.203 825.130, 247.125 825.120, 239.932 829.280 M 2564 830.111 C 2553.991 839.086, 2544.054 843.198, 2531.940 843.375 C 2523.819 843.494, 2523.486 843.584, 2525.456 845.139 C 2537.747 854.838, 2559.653 852.120, 2582.375 838.077 L 2586.040 835.812 2582.174 833.011 C 2572.041 825.671, 2569.418 825.252, 2564 830.111 M 300.590 848.292 C 298.452 854.312, 291.991 864.295, 287.698 868.212 C 284.278 871.331, 284.884 874.677, 289.677 879.151 L 292.193 881.500 295.138 878 C 301.914 869.947, 305.966 856.147, 304.043 847.671 C 302.844 842.382, 302.678 842.412, 300.590 848.292 M 2512.598 846.261 C 2510.592 856.290, 2514.331 869.166, 2521.814 877.998 L 2524.778 881.496 2526.842 878.998 C 2531.651 873.178, 2531.643 871.558, 2526.777 865.995 C 2524.336 863.205, 2520.282 856.951, 2517.767 852.097 C 2513.443 843.750, 2513.163 843.434, 2512.598 846.261 M 294.140 848.331 C 287.571 856.247, 264.680 857.367, 248.788 850.550 C 246.743 849.672, 243.544 852.797, 240.341 858.800 L 238.183 862.846 245.585 863.540 C 249.656 863.922, 255.465 863.964, 258.494 863.633 C 263.983 863.035, 265.556 864.042, 263.051 866.550 C 262.529 867.072, 261.797 869.413, 261.423 871.751 L 260.744 876.001 264.122 875.372 C 277.377 872.902, 285.985 866.386, 293.985 852.767 C 296.308 848.813, 296.421 845.583, 294.140 848.331 M 2333 848.262 C 2309.524 857.620, 2299.353 867.014, 2291.602 886.500 C 2290.070 890.350, 2288.353 894.063, 2287.786 894.750 C 2286.075 896.824, 2287.898 896.167, 2292.320 893.115 C 2296.851 889.988, 2306.198 880.466, 2309.857 875.250 C 2313.843 869.567, 2317.628 871.950, 2314.432 878.131 C 2313.491 879.952, 2308.785 885.377, 2303.976 890.186 C 2292.411 901.751, 2304.090 897.631, 2316.734 885.685 C 2328.135 874.914, 2341.127 845.023, 2333 848.262 M 2520 847.540 C 2520 849.008, 2527.369 860.565, 2530.300 863.695 C 2535.033 868.747, 2549.404 876, 2554.682 876 C 2555.771 876, 2554.680 869.794, 2553.015 866.530 C 2550.574 861.742, 2550.321 861.944, 2557.527 862.928 C 2563.497 863.744, 2575.922 863.412, 2576.924 862.409 C 2581.233 858.101, 2569.673 849.749, 2562.692 852.128 C 2549.385 856.661, 2535.260 855.639, 2524.250 849.345 C 2521.912 848.009, 2520 847.196, 2520 847.540 M 481.353 851.806 C 483.804 867.137, 495.371 884.303, 509.500 893.582 C 512.490 895.545, 523.746 900.239, 521.940 898.770 C 513.115 891.589, 510.255 888.847, 505.972 883.465 C 503.237 880.028, 501 876.268, 501 875.108 C 501 872.049, 504.402 872.414, 506.982 875.750 C 513.622 884.334, 529.814 898.410, 528.325 894.305 C 519.664 870.419, 508.351 858.003, 488.724 850.840 L 480.732 847.923 481.353 851.806 M 915.250 855.247 C 911.200 856.546, 911.209 856.715, 915.578 861.820 C 918.918 865.722, 919.500 866.001, 924.328 866.012 C 930.963 866.027, 938.069 867.946, 945 871.594 C 948.025 873.186, 950.897 874.661, 951.382 874.871 C 953.840 875.939, 945.892 864.186, 941.641 860.467 C 934.706 854.401, 924.303 852.343, 915.250 855.247 M 1882.134 855.280 C 1877.691 856.700, 1870.221 864.248, 1866.575 871.001 L 1863.649 876.418 1867.075 874.137 C 1874.930 868.905, 1880.995 866.779, 1889.602 866.242 L 1898.016 865.717 1901.450 860.936 L 1904.885 856.156 1901.793 855.078 C 1897.933 853.732, 1886.613 853.849, 1882.134 855.280 M 797.230 859.115 C 793.303 861.059, 786 868.255, 786 870.180 C 786 873.571, 795.076 870.769, 797.110 866.750 C 798.293 864.413, 800.133 861.263, 801.199 859.750 C 803.526 856.446, 802.843 856.337, 797.230 859.115 M 2017.562 864.165 C 2019.582 868.199, 2021.308 871.589, 2021.399 871.698 C 2021.489 871.807, 2023.784 871.579, 2026.498 871.191 L 2031.433 870.485 2027.563 866.201 C 2017.793 855.387, 2012.642 854.339, 2017.562 864.165 M 804.132 866.029 C 799.972 873.229, 799.391 875.670, 801.329 877.811 C 802.190 878.763, 803.313 880.657, 803.823 882.021 C 804.685 884.321, 804.872 884.104, 806.413 879 C 810.665 864.924, 809.289 857.103, 804.132 866.029 M 2008.392 862.174 C 2007.141 864.199, 2007.836 872.279, 2009.737 877.812 L 2011.563 883.125 2014.263 879.001 L 2016.963 874.877 2013.469 867.938 C 2009.770 860.594, 2009.535 860.326, 2008.392 862.174 M 956.053 872.750 C 958.929 877.616, 961.561 879.906, 963.746 879.444 C 964.711 879.240, 968.122 878.568, 971.326 877.950 C 980.935 876.097, 971.755 869.067, 959.668 869.022 L 953.837 869 956.053 872.750 M 1847 871.012 C 1845.075 872.070, 1842.386 873.816, 1841.025 874.892 L 1838.549 876.849 1841.025 877.398 C 1855.743 880.662, 1856.164 880.583, 1859.536 873.929 L 1862.034 869 1856.267 869.044 C 1852.527 869.073, 1849.270 869.764, 1847 871.012 M 919.500 870.964 C 908.230 873.550, 898.533 884.447, 904 888.382 C 917.273 897.938, 930.580 898.904, 945.741 891.413 C 952.457 888.095, 958.426 882, 954.959 882 C 954.358 882, 952.423 880.899, 950.658 879.552 C 941.674 872.700, 928.164 868.977, 919.500 870.964 M 1884.500 870.971 C 1878.089 871.715, 1875.300 872.911, 1866.099 878.858 L 1860.257 882.633 1862.143 885.221 C 1871.539 898.121, 1900.031 900.023, 1913.335 888.639 L 1917.170 885.357 1912.109 880.507 C 1901.895 870.718, 1898.065 869.395, 1884.500 870.971 M 776.500 874.222 C 767.032 877.578, 757.843 888.112, 756.481 897.170 C 756.133 899.487, 756.603 898.793, 758.028 894.885 C 761.271 885.997, 772.424 875, 778.196 875 C 779.188 875, 780 874.550, 780 874 C 780 873.450, 779.888 873.036, 779.750 873.079 C 779.612 873.122, 778.150 873.637, 776.500 874.222 M 781.763 877.482 C 767.351 881.141, 759.124 894.440, 759.020 914.250 C 758.997 918.638, 759.562 918.770, 768.540 916.478 C 786.709 911.840, 794.844 902.907, 794.956 887.473 C 795.027 877.769, 791.412 875.032, 781.763 877.482 M 2023.057 878.431 C 2012.101 891.632, 2033.486 918, 2055.148 918 C 2060.319 918, 2056.242 895.429, 2049.468 886.547 C 2043.942 879.302, 2026.725 874.011, 2023.057 878.431 M 967.363 884.263 L 961.226 885.248 960.113 890.791 C 958.718 897.737, 963.236 898.040, 972.500 891.622 C 982.804 884.484, 981.110 882.057, 967.363 884.263 M 1838.438 885.881 C 1843.732 896.118, 1857.989 900.080, 1856.058 890.778 L 1854.941 885.397 1847.952 884.198 C 1837.089 882.336, 1836.646 882.414, 1838.438 885.881 M 2015.430 886.500 C 2010.972 900.884, 2020.097 920.397, 2034.786 927.891 C 2046.258 933.743, 2044.420 924.907, 2032.286 915.872 C 2021.956 908.181, 2018.188 901.939, 2017.071 890.672 C 2016.436 884.267, 2016.260 883.821, 2015.430 886.500 M 799 890.757 C 799 898.960, 793.073 909.701, 785.942 914.420 C 775.613 921.255, 770.599 930, 777.009 930 C 788.592 930, 804.074 905.572, 801.568 891.250 C 800.648 885.993, 799 885.676, 799 890.757 M 949.475 891.041 C 948.570 892.505, 941.153 897.085, 939.022 897.496 C 938.047 897.683, 935.506 898.321, 933.375 898.913 C 927.571 900.524, 921.963 900.232, 914.509 897.930 C 910.823 896.791, 907.702 896.004, 907.575 896.180 C 907.448 896.356, 906.141 898.117, 904.672 900.094 C 895.546 912.371, 928.159 911.018, 943.454 898.484 C 947.369 895.276, 951.802 890, 950.582 890 C 950.327 890, 949.829 890.468, 949.475 891.041 M 1867.032 893.060 C 1868.174 895.194, 1876.735 901.779, 1881.710 904.351 C 1890.389 908.837, 1903.785 909.788, 1911.700 906.481 L 1915.129 905.048 1912.017 900.524 C 1908.449 895.339, 1908.365 895.320, 1900.740 898 C 1890.791 901.497, 1879.394 900.149, 1870.968 894.479 C 1867.251 891.977, 1866.262 891.621, 1867.032 893.060 M 949.436 897.483 C 943.735 903.409, 935.618 908.486, 929.173 910.155 C 922.292 911.938, 915.196 924.555, 921.642 923.545 C 923.214 923.299, 926.591 922.866, 929.146 922.582 C 939.577 921.425, 948.158 915.530, 951.830 907 C 953.443 903.250, 955.726 891.748, 954.784 892.109 C 954.628 892.169, 952.221 894.587, 949.436 897.483 M 1861 892.825 C 1861 900.142, 1866.831 912.277, 1872.320 916.384 C 1879.673 921.886, 1897.039 925.767, 1896.978 921.894 C 1896.901 916.990, 1893.087 912.103, 1888.205 910.653 C 1879.140 907.961, 1872.201 903.581, 1865.250 896.162 C 1862.912 893.667, 1861 892.165, 1861 892.825 M 376.324 896.045 C 357.671 899.733, 340.680 911.209, 328.574 928.296 C 322.941 936.246, 322.748 935.684, 331.561 936.957 C 357.076 940.645, 375.376 934.664, 397.228 915.493 C 403.502 909.989, 409.729 904.723, 411.067 903.790 C 413.436 902.137, 413.330 902.108, 407 902.680 C 392.333 904.004, 374.223 910.183, 361.912 918.063 C 356.265 921.678, 354 921.841, 354 918.633 C 354 912.278, 381.586 900.561, 404 897.396 L 409.500 896.619 405 895.884 C 399.036 894.909, 381.572 895.007, 376.324 896.045 M 2413 895.952 L 2408.500 896.603 2412.500 897.330 C 2424.931 899.589, 2428.324 900.401, 2436.595 903.097 C 2448.198 906.879, 2462.377 914.851, 2462.820 917.842 C 2463.312 921.167, 2460.320 920.582, 2450.729 915.480 C 2437.736 908.568, 2424.159 904.515, 2407.500 902.575 L 2402.500 901.993 2406.183 904.247 C 2408.209 905.486, 2412.484 908.976, 2415.683 912.003 C 2439.751 934.772, 2466.411 943.454, 2490.297 936.302 L 2493.093 935.465 2488.953 929.482 C 2470.806 903.262, 2444.061 891.455, 2413 895.952 M 1056.500 904.497 C 1039.710 907.656, 1026.816 914.944, 1014.271 928.365 C 1006.874 936.278, 997.382 949.968, 999.220 950.073 C 1010.693 950.729, 1028.018 948.376, 1036.946 944.949 C 1050.197 939.864, 1054.647 936.303, 1075.376 914.199 L 1080.252 909 1076.876 909.647 C 1066.017 911.728, 1047.908 919.753, 1036.134 927.702 C 1029.229 932.363, 1027.279 932.890, 1026.307 930.357 C 1024.407 925.405, 1051.397 910.571, 1072.500 904.969 L 1079.500 903.110 1071.500 903.145 C 1067.100 903.165, 1060.350 903.773, 1056.500 904.497 M 1742 904.192 C 1765.091 910.712, 1791 924.402, 1791 930.085 C 1791 933.070, 1787.962 932.422, 1781.067 927.965 C 1768.144 919.612, 1753.192 913.015, 1740.340 909.994 L 1737.180 909.251 1740.840 912.942 C 1742.853 914.972, 1747.570 920.091, 1751.322 924.318 C 1766.915 941.881, 1787.021 950.612, 1809.985 949.792 L 1818.166 949.500 1813.229 941.943 C 1796.587 916.468, 1772.005 902.615, 1744.308 903.102 C 1738.722 903.200, 1738.634 903.242, 1742 904.192 M 770.500 920 C 769.400 920.473, 767.263 920.891, 765.750 920.930 C 763.272 920.993, 763 921.356, 763 924.604 L 763 928.207 766.274 925.354 C 768.074 923.784, 770.662 921.736, 772.024 920.802 C 774.652 919, 773.832 918.568, 770.500 920 M 2047.432 923.589 C 2050.074 926.015, 2052.633 928, 2053.118 928 C 2054.498 928, 2054.151 921.977, 2052.750 921.605 C 2052.063 921.422, 2049.504 920.801, 2047.064 920.225 L 2042.629 919.179 2047.432 923.589" stroke="none" fill="#c39b18" fill-rule="evenodd"/></svg>