<svg xmlns="http://www.w3.org/2000/svg" width="2814" height="1536" viewBox="0 0 2814 1536" version="1.1"><path d="M 1149.911 596.618 C 1143.512 612.790, 1144.822 632.129, 1153.206 645.288 C 1156.757 650.861, 1157.216 650.893, 1155.996 645.484 C 1154.358 638.220, 1157.335 624.338, 1161.998 617.500 C 1167.035 610.113, 1166.724 608.621, 1158.453 600.500 C 1151.218 593.396, 1151.190 593.384, 1149.911 596.618 M 1597.204 597.615 C 1584.920 621.792, 1594.837 658, 1613.743 658 C 1633.888 658, 1629.326 623.260, 1606.207 600.615 L 1599.178 593.730 1597.204 597.615 M 1627.159 601.469 C 1619.468 609.566, 1619.461 609.596, 1623.726 616.119 C 1629.400 624.797, 1632.410 639.281, 1630.198 647.261 C 1628.825 652.213, 1630.094 651.267, 1633.921 644.485 C 1640.789 632.316, 1642.760 614.386, 1638.617 601.762 C 1635.725 592.950, 1635.263 592.938, 1627.159 601.469 M 1177.894 603.250 C 1160.346 621.683, 1154.614 644.847, 1165.071 655.069 C 1180.393 670.047, 1201.656 634.681, 1193.069 608.500 C 1187.907 592.759, 1187.888 592.752, 1177.894 603.250 M 945 602.892 C 945 606.187, 945.375 606.877, 947.450 607.398 C 954.051 609.055, 968 626.625, 968 633.282 C 968 634.960, 968.230 635.054, 969.585 633.930 C 975.789 628.780, 962.941 607.138, 949.955 600.864 C 944.905 598.424, 945 598.385, 945 602.892 M 1833.500 602.427 C 1823.996 608.750, 1818.961 615.914, 1816.808 626.178 C 1814.885 635.349, 1816.710 636.769, 1819.793 628.500 C 1822.587 621.008, 1830.958 611.356, 1837.750 607.797 C 1840.486 606.363, 1841 605.532, 1841 602.547 C 1841 598.145, 1839.962 598.129, 1833.500 602.427 M 928.833 610.306 C 927.198 624.310, 936.356 643.616, 946.831 648.249 C 971.210 659.034, 968.042 622.669, 943.596 611.119 C 933.050 606.136, 929.343 605.932, 928.833 610.306 M 1846.892 609.354 C 1829.363 616.565, 1818.777 633.391, 1823.935 645.843 C 1826.814 652.793, 1841.253 650.177, 1847.908 641.500 C 1849.595 639.300, 1851.377 637.015, 1851.867 636.422 C 1853.711 634.191, 1856.247 623.205, 1856.755 615.250 C 1857.374 605.558, 1856.863 605.253, 1846.892 609.354 M 1126.560 614.718 C 1127.308 618.987, 1129.391 626.322, 1131.751 633 C 1133.591 638.206, 1142.532 647.652, 1150.987 653.321 C 1156.199 656.816, 1160.905 658.723, 1156.220 655.442 C 1149.344 650.626, 1142.084 634.558, 1141.239 622.287 L 1140.742 615.075 1136.121 613.626 C 1125.936 610.433, 1125.812 610.447, 1126.560 614.718 M 1209 613.868 C 1198.899 616.149, 1199 616.051, 1199 623.572 C 1199 636.640, 1192.828 651.783, 1185.070 657.750 C 1179.680 661.896, 1182.118 662, 1190.533 657.984 C 1201.970 652.526, 1214.497 635.623, 1218.421 620.356 C 1220.899 610.712, 1221.412 611.065, 1209 613.868 M 1567.310 616.970 C 1569.223 633.123, 1583.690 652.651, 1598.420 658.966 C 1604.717 661.665, 1604.953 661.560, 1601.087 657.781 C 1592.565 649.449, 1588.226 639.250, 1587.317 625.416 L 1586.705 616.097 1577.979 614.049 C 1566.107 611.262, 1566.617 611.122, 1567.310 616.970 M 1654.500 612.525 C 1653.950 612.727, 1651.588 613.384, 1649.250 613.985 L 1645 615.077 1645 621.357 C 1645 631.576, 1639.443 646.477, 1633.600 651.924 C 1629.214 656.014, 1630.701 656.251, 1636.750 652.426 C 1650.380 643.808, 1654.395 637.811, 1658.960 619.250 L 1660.743 612 1658.122 612.079 C 1656.680 612.122, 1655.050 612.323, 1654.500 612.525 M 920.048 624.295 C 921.235 635.763, 927.350 645.523, 936.210 650.088 C 942.424 653.290, 945.245 652.627, 940.447 649.093 C 933.730 644.145, 927.959 634.448, 925.648 624.227 C 923.553 614.959, 919.087 615.013, 920.048 624.295 M 1860.577 620.250 C 1860.323 621.487, 1859.823 624.300, 1859.467 626.500 C 1858.055 635.208, 1852.106 644.684, 1844.536 650.282 L 1840.500 653.267 1843.830 652.642 C 1857.115 650.151, 1866.940 636.200, 1866.994 619.750 C 1867.004 616.900, 1861.171 617.354, 1860.577 620.250 M 1214.889 639.679 C 1207.971 650.874, 1199.440 658.809, 1190.270 662.580 L 1184.500 664.953 1188.500 664.978 C 1202.108 665.063, 1218.424 657.834, 1227.292 647.791 C 1233.593 640.655, 1233.519 640.419, 1224.055 637.609 C 1217.046 635.527, 1217.522 635.420, 1214.889 639.679 M 1563 637.620 C 1562.175 637.900, 1559.569 638.819, 1557.210 639.663 L 1552.920 641.196 1556.603 645.848 C 1563.882 655.043, 1571.681 659.659, 1585.628 663.031 C 1598.916 666.243, 1602.043 665.764, 1594.015 661.746 C 1586.714 658.092, 1576.510 648.473, 1572.824 641.771 C 1570.465 637.482, 1567.322 636.154, 1563 637.620 M 1646.336 650.108 C 1642.576 653.380, 1636.447 657.597, 1632.716 659.478 L 1625.932 662.899 1629.996 664.117 C 1637.917 666.490, 1650.877 662.690, 1661.250 654.953 C 1668.930 649.225, 1668.789 648.777, 1658.336 645.686 L 1653.172 644.159 1646.336 650.108 M 1124.750 647.160 C 1118.950 649.718, 1118.929 650.015, 1124.250 654.244 C 1134.479 662.373, 1145.204 665.780, 1155.500 664.169 L 1160.500 663.386 1153.500 659.790 C 1149.650 657.811, 1143.729 653.675, 1140.343 650.596 C 1133.457 644.338, 1131.918 643.999, 1124.750 647.160 M 1205 666.138 C 1198.991 668.211, 1182.986 670.304, 1179 669.537 L 1176.500 669.057 1179 671.098 C 1186.728 677.407, 1214.290 682.047, 1218.574 677.760 C 1219.959 676.374, 1213.127 663.775, 1211.177 664.120 C 1210.805 664.186, 1208.025 665.094, 1205 666.138 M 1164 666.016 C 1163.175 666.557, 1160.807 667.469, 1158.738 668.042 C 1154.104 669.325, 1154.349 674.223, 1159.323 679.750 C 1163.319 684.189, 1175 680.724, 1175 675.100 C 1175 673.785, 1166.861 664.937, 1165.723 665.015 C 1165.600 665.024, 1164.825 665.474, 1164 666.016 M 1571.620 668.432 C 1564.497 677.771, 1565.185 678.517, 1580.837 678.427 C 1594.746 678.346, 1598.789 677.338, 1605.917 672.175 L 1610.040 669.189 1601.201 669.094 C 1595.862 669.037, 1589.418 668.216, 1584.931 667.023 C 1575.079 664.403, 1574.659 664.448, 1571.620 668.432 M 1615.750 669.524 C 1611.199 673.645, 1611.186 673.675, 1612.680 676.758 C 1616.250 684.129, 1626.451 683.952, 1629.579 676.466 C 1631.953 670.783, 1631.480 669.699, 1625.643 667.443 L 1620.321 665.386 1615.750 669.524 M 396.689 699.250 C 392.357 705.085, 391.849 708.233, 394.659 711.823 C 400.629 719.452, 406.875 736.531, 407.083 745.799 L 407.167 749.500 409.833 744 C 417.703 727.768, 405.744 687.053, 396.689 699.250 M 2382.629 700.250 C 2372.578 717.648, 2370.949 731.631, 2377.357 745.500 L 2379.667 750.500 2380.263 742.500 C 2381.003 732.567, 2385.072 721.977, 2392.512 710.621 C 2394.247 707.974, 2393.034 703.855, 2389.018 698.750 C 2386.148 695.102, 2385.518 695.250, 2382.629 700.250 M 2409.885 699.963 C 2396.856 708.073, 2383.788 729.893, 2384.110 743 L 2384.172 745.500 2384.975 742.841 C 2387.797 733.498, 2401.546 721.966, 2412.750 719.544 C 2416.375 718.760, 2416.533 718.071, 2416.103 705 C 2415.832 696.772, 2415.476 696.483, 2409.885 699.963 M 370.607 699.582 C 369.857 701.536, 369.829 714.770, 370.569 717.500 C 370.949 718.902, 372.916 720.067, 377.144 721.396 C 388.101 724.839, 397.248 733.032, 401.082 742.836 C 403.155 748.135, 403.528 746.145, 402.010 737.886 C 399.486 724.147, 385.165 703.603, 375.213 699.445 C 370.995 697.682, 371.340 697.672, 370.607 699.582 M 2420.500 722.664 C 2389.679 725.872, 2374.629 759.849, 2402.354 763.632 C 2414.643 765.309, 2435.595 751.877, 2442.653 737.795 C 2446.197 730.724, 2448 726.736, 2448 725.965 C 2448 723.960, 2429.448 721.733, 2420.500 722.664 M 346.500 723.497 C 345.950 723.684, 343.835 724.114, 341.801 724.454 L 338.102 725.072 340.115 729.786 C 350.089 753.134, 372.433 767.801, 390.196 762.658 C 404.745 758.446, 399.528 736.665, 381.823 727.708 C 374.321 723.912, 352.830 721.350, 346.500 723.497 M 422.943 727.575 L 417.387 730.112 416.282 736.565 C 415.674 740.114, 413.805 745.807, 412.129 749.217 C 408.607 756.381, 408.783 757.089, 413.423 754.436 C 422.285 749.369, 429.754 738.786, 431.551 728.750 C 432.386 724.086, 431 723.897, 422.943 727.575 M 2354.459 728.709 C 2355.230 732.904, 2360.139 743.381, 2362.796 746.501 C 2367.132 751.593, 2379.491 758.896, 2377.841 755.391 C 2377.610 754.901, 2375.974 751.575, 2374.205 748 C 2372.436 744.425, 2370.459 738.951, 2369.812 735.835 C 2368.051 727.361, 2352.920 720.337, 2354.459 728.709 M 338.932 753.280 C 330.338 758.250, 329.481 758.822, 330.008 759.234 C 333.231 761.748, 341.179 767, 341.760 767 C 342.176 767, 344.631 768.126, 347.215 769.502 C 359.804 776.203, 373.942 776.843, 385.765 771.245 C 392.685 767.968, 392.969 767.200, 387.051 767.769 C 375.988 768.832, 362.442 763.698, 352.338 754.614 C 346.266 749.155, 346.095 749.138, 338.932 753.280 M 2434.500 754.549 C 2424.790 763.279, 2410.404 768.696, 2399.361 767.780 C 2393.297 767.277, 2393.977 768.383, 2402 772.068 C 2414.968 778.026, 2433.357 774.449, 2453.375 762.077 L 2457.040 759.812 2452.921 756.828 C 2449.730 754.516, 2440.666 749.865, 2439.667 750.027 C 2439.575 750.042, 2437.250 752.077, 2434.500 754.549 M 399.590 772.292 C 397.452 778.312, 390.991 788.295, 386.698 792.212 C 383.278 795.331, 383.884 798.677, 388.677 803.151 L 391.193 805.500 394.138 802 C 400.914 793.947, 404.966 780.147, 403.043 771.671 C 401.844 766.382, 401.678 766.412, 399.590 772.292 M 2383.949 768.198 C 2383.921 768.914, 2383.658 771.381, 2383.364 773.681 C 2382.301 781.998, 2385.926 793.256, 2392.260 801.305 L 2395.255 805.109 2397.547 802.956 C 2402.649 798.162, 2402.694 795.617, 2397.777 789.995 C 2395.336 787.205, 2391.238 780.866, 2388.669 775.908 C 2386.101 770.951, 2383.977 767.481, 2383.949 768.198 M 393.140 772.331 C 387.657 778.938, 366.188 781.288, 353.144 776.709 L 345.787 774.127 343.644 776.441 C 342.465 777.713, 340.529 780.575, 339.341 782.800 L 337.183 786.846 344.365 787.520 C 348.315 787.890, 354.124 787.918, 357.274 787.582 C 363.537 786.915, 363.695 787.093, 361.500 792.346 C 359.098 798.095, 359.460 800.154, 362.750 799.448 C 376.944 796.403, 385.001 790.358, 392.985 776.767 C 395.308 772.813, 395.421 769.583, 393.140 772.331 M 2391 771.540 C 2391 780.663, 2414.564 800, 2425.682 800 C 2426.776 800, 2425.676 793.788, 2424 790.500 C 2421.469 785.535, 2421.413 785.710, 2425.250 786.569 C 2429.203 787.455, 2446.916 787.417, 2447.812 786.521 C 2452.208 782.126, 2440.779 773.713, 2433.692 776.128 C 2420.385 780.661, 2406.260 779.639, 2395.250 773.345 C 2392.912 772.009, 2391 771.196, 2391 771.540 M 1014.750 779.203 C 1010.144 780.426, 1010.139 780.634, 1014.578 785.820 C 1017.918 789.722, 1018.500 790.001, 1023.328 790.012 C 1029.963 790.027, 1037.069 791.946, 1044 795.594 C 1047.025 797.186, 1049.897 798.661, 1050.382 798.871 C 1052.840 799.939, 1044.892 788.186, 1040.641 784.467 C 1033.690 778.386, 1024.703 776.559, 1014.750 779.203 M 1753.134 779.280 C 1748.691 780.700, 1741.221 788.248, 1737.575 795.001 L 1734.649 800.418 1738.075 798.137 C 1745.930 792.905, 1751.995 790.779, 1760.602 790.242 L 1769.016 789.717 1772.450 784.936 L 1775.885 780.156 1772.793 779.078 C 1768.933 777.732, 1757.613 777.849, 1753.134 779.280 M 1018.500 794.990 C 1011.296 796.647, 997.287 808.569, 1000.394 810.398 C 1001.425 811.004, 1003.445 812.430, 1004.884 813.567 C 1015.401 821.874, 1030.092 822.534, 1044.776 815.357 C 1051.463 812.089, 1057.438 806, 1053.959 806 C 1053.358 806, 1051.434 804.925, 1049.683 803.612 C 1040.123 796.439, 1027.440 792.933, 1018.500 794.990 M 1755.500 794.971 C 1749.066 795.718, 1746.310 796.904, 1736.953 802.952 L 1730.966 806.822 1734.343 810.402 C 1745.974 822.734, 1771.157 823.403, 1785.362 811.756 L 1788.225 809.409 1783.136 804.533 C 1772.893 794.716, 1769.072 793.394, 1755.500 794.971 M 871 800.588 C 862.857 805.227, 856.639 813.474, 855.481 821.170 C 855.136 823.462, 855.625 822.731, 857.049 818.824 C 860.268 809.990, 868.822 801.387, 876.764 798.996 C 878.801 798.382, 878.989 798.153, 877.500 798.098 C 876.400 798.057, 873.475 799.178, 871 800.588 M 880.763 801.482 C 866.351 805.141, 858.124 818.440, 858.020 838.250 C 857.997 842.643, 858.581 842.779, 867.540 840.453 C 885.372 835.824, 892.819 828.112, 893.788 813.273 C 894.525 801.991, 891.071 798.864, 880.763 801.482 M 1894.057 802.431 C 1883.099 815.635, 1899.854 837.263, 1924.393 841.590 L 1928.287 842.276 1927.795 832.875 C 1926.689 811.722, 1903.622 790.907, 1894.057 802.431 M 1886.441 810.500 C 1881.969 824.759, 1891.162 844.430, 1905.786 851.891 C 1917.258 857.743, 1915.420 848.907, 1903.286 839.872 C 1892.774 832.045, 1888.956 825.717, 1887.988 814.516 C 1887.447 808.251, 1887.281 807.821, 1886.441 810.500 M 898 814.757 C 898 823.010, 892.066 833.705, 884.832 838.493 C 874.840 845.105, 869.792 854, 876.032 854 C 887.524 854, 903.056 829.471, 900.568 815.250 C 899.648 809.993, 898 809.676, 898 814.757 M 1048.475 815.041 C 1047.604 816.450, 1040.195 821.074, 1038.148 821.485 C 1037.241 821.668, 1034.333 822.369, 1031.683 823.044 C 1026.097 824.467, 1017.135 823.790, 1011.744 821.537 C 1006.843 819.490, 1006.904 819.471, 1003.750 823.931 C 1000.447 828.601, 1000.444 828.632, 1003.128 830.068 C 1012.603 835.140, 1031.444 831.506, 1042.454 822.484 C 1046.369 819.276, 1050.802 814, 1049.582 814 C 1049.327 814, 1048.829 814.468, 1048.475 815.041 M 1737.862 816.698 C 1743.948 827.801, 1769.958 835.985, 1782.315 830.684 L 1786.129 829.048 1783.017 824.524 C 1779.449 819.339, 1779.365 819.320, 1771.740 822 C 1761.447 825.618, 1749.499 824.042, 1741.101 817.958 C 1738.226 815.875, 1737.190 815.473, 1737.862 816.698 M 1050.812 819.368 C 1046.321 824.997, 1036.652 831.589, 1029.936 833.600 C 1021.394 836.159, 1013.009 848.741, 1020.642 847.545 C 1022.214 847.299, 1025.591 846.866, 1028.146 846.582 C 1042.343 845.007, 1051.625 835.703, 1053.418 821.250 C 1054.188 815.041, 1054.237 815.076, 1050.812 819.368 M 1732 817.078 C 1732 825.267, 1738.597 837.457, 1745.330 841.710 C 1752.770 846.409, 1768.037 849.133, 1767.978 845.750 C 1767.891 840.786, 1764.035 836.066, 1758.821 834.540 C 1751.243 832.322, 1743.435 827.566, 1737.301 821.431 C 1734.385 818.516, 1732 816.557, 1732 817.078 M 869.500 844.055 C 868.400 844.498, 866.263 844.891, 864.750 844.930 C 862.377 844.990, 862 845.411, 862 848 C 862 851.735, 862.176 851.727, 867.309 847.760 C 869.614 845.979, 871.688 844.404, 871.917 844.260 C 873.101 843.520, 871.227 843.361, 869.500 844.055 M 1918.432 847.589 C 1921.074 850.015, 1923.633 852, 1924.118 852 C 1925.498 852, 1925.151 845.977, 1923.750 845.605 C 1923.063 845.422, 1920.504 844.801, 1918.064 844.225 L 1913.629 843.179 1918.432 847.589" stroke="none" fill="#e693a7" fill-rule="evenodd"/><path d="M 1177.444 596.470 L 1168.821 604.939 1161.641 597.547 C 1150.348 585.919, 1147.941 586.254, 1144.001 600 C 1142.819 604.125, 1141.687 608.028, 1141.486 608.674 C 1141.212 609.557, 1139.680 609.503, 1135.311 608.460 C 1132.115 607.696, 1127.536 607.055, 1125.135 607.036 L 1120.770 607 1121.439 612.750 C 1122.357 620.633, 1124.630 628.323, 1128.038 635.075 L 1130.905 640.754 1127.550 641.298 C 1105.450 644.884, 1117.838 665.620, 1143.838 668.561 C 1147.320 668.955, 1150.321 669.778, 1150.507 670.389 C 1150.692 671, 1151.142 673.278, 1151.505 675.451 C 1151.950 678.110, 1153.364 680.599, 1155.833 683.068 L 1159.500 686.734 1157.275 695.617 C 1146.500 738.629, 1155.902 779.964, 1182.931 808.414 C 1186.544 812.216, 1188.825 814.955, 1188 814.500 C 1182.156 811.275, 1162.083 797.054, 1158.415 793.540 C 1157.818 792.968, 1155.378 790.925, 1152.994 789 C 1116.526 759.561, 1120.096 765.087, 1122.098 741.172 C 1124.930 707.331, 1113.334 683.174, 1085.609 665.155 C 1066.002 652.414, 1064.509 652.790, 1065.302 670.276 C 1066.463 695.893, 1072.176 707.374, 1096.660 733.297 C 1103.794 740.849, 1109.806 748.249, 1111.787 751.911 L 1115.073 757.991 1105.287 750.669 C 1090.721 739.773, 1072.674 729.377, 1056.500 722.565 C 1026.813 710.063, 1002.344 694.588, 987.675 679.038 L 981.090 672.058 982.660 666.779 C 985.031 658.806, 984.036 651.167, 979.129 639.683 C 976.858 634.367, 975 628.673, 975 627.029 C 975 616.938, 963.862 602.086, 951.761 596.039 C 942.084 591.203, 940 591.940, 940 600.198 C 940 603.928, 939.830 604.179, 937.750 603.517 C 925.628 599.658, 924.041 600.204, 924.015 608.250 L 924 613 919.500 613 L 915 613 915 617.058 C 915 637.615, 923.752 652.039, 939.202 656.947 C 941.238 657.594, 943.170 658.961, 943.495 659.984 C 945.492 666.277, 958.897 674.165, 968.658 674.792 C 975.815 675.251, 976.209 675.409, 978.802 678.863 C 981.135 681.970, 987.882 688.696, 995.330 695.340 C 996.524 696.405, 1002.225 700.427, 1008 704.278 C 1017.964 710.923, 1018.291 711.249, 1014.394 710.652 C 997.472 708.059, 973.670 709.168, 955.750 713.385 C 950.431 714.636, 950 714.607, 950 712.994 C 950 711.840, 948.941 711.038, 946.870 710.624 C 938.727 708.995, 927.712 700.155, 916.812 686.500 C 903.313 669.589, 889.663 661.864, 865.500 657.461 C 854.056 655.375, 854 655.385, 854 659.514 C 854 661.446, 854.400 663.809, 854.888 664.764 C 855.377 665.719, 857.672 670.485, 859.989 675.355 C 873.317 703.374, 894.388 716.333, 926.795 716.442 L 944.089 716.500 938.795 718.132 C 922.061 723.291, 887.651 740.815, 869.500 753.421 C 867.850 754.567, 865.741 755.954, 864.813 756.503 C 861.640 758.378, 851.508 765.495, 842 772.526 C 780.171 818.251, 735.625 835.828, 674.500 838.619 L 661.500 839.212 659.500 836.084 C 657.218 832.515, 651.201 828, 648.727 828 C 641.583 828, 635.562 821.306, 627.356 804.239 C 617.321 783.366, 604.431 772.857, 581.134 766.554 C 573.284 764.430, 572.846 764.848, 574.046 773.320 C 578.647 805.810, 602.236 827.715, 638.879 833.525 C 641.287 833.907, 644.887 835.182, 646.879 836.360 L 650.500 838.500 644.058 838.803 C 622.486 839.816, 565 828.293, 565 822.956 C 565 818.262, 563.358 815.356, 557.058 808.897 C 549.142 800.782, 545.739 792.244, 543.520 774.928 C 539.248 741.598, 528.499 725.563, 501.251 711.875 C 482.431 702.420, 481.184 703.185, 483.302 722.878 C 488.193 768.353, 503.179 791.964, 537.269 807.900 C 542.092 810.155, 546.253 812, 546.516 812 C 547.239 812, 555.988 821.400, 555.994 822.184 C 556.001 823.004, 541.386 818.085, 523.500 811.248 C 490.289 798.554, 412.828 759.142, 417.916 757.527 C 426.297 754.867, 440.463 728.860, 437.597 721.393 C 436.862 719.477, 428.275 720.152, 422.461 722.581 C 417.540 724.637, 417.339 724.508, 416.670 718.865 C 413.712 693.882, 396.171 683.108, 389.726 702.314 C 389.483 703.038, 387.609 702.095, 384.914 699.894 C 369.424 687.237, 365.582 689.042, 365.527 709 L 365.500 718.500 359.500 718.137 C 353.387 717.768, 338.408 719.545, 334.145 721.146 C 330.991 722.330, 334.273 732.394, 341.289 743.049 L 342.967 745.599 337.634 748.299 C 319.724 757.368, 319.882 760.048, 338.978 771.048 C 340.207 771.756, 339.932 772.643, 337.339 776.321 C 328.427 788.965, 331.699 793, 350.865 793 L 356 793 356 799.114 L 356 805.227 360.750 804.561 C 366.583 803.743, 374.821 801.178, 377.474 799.355 C 379.253 798.132, 379.598 798.281, 380.974 800.868 C 388.005 814.092, 392.496 813.899, 401.167 800 C 406.961 790.713, 407.500 788.605, 407.500 775.250 C 407.500 768.512, 407.880 763, 408.344 763 C 408.808 763, 415.333 766.448, 422.844 770.662 C 439.509 780.012, 471.592 796.395, 486.500 803.167 C 492.550 805.915, 500.543 809.546, 504.263 811.236 C 512.858 815.140, 512.497 815.353, 499.627 813.968 C 467.138 810.470, 439.577 823.744, 420.680 851.991 C 413.032 863.423, 413.034 863.431, 424.083 865.461 C 455.551 871.244, 476.943 864.889, 502.847 842.060 C 514.291 831.975, 517.461 830.058, 527 827.459 C 530.575 826.484, 533.950 825.374, 534.500 824.992 C 535.050 824.609, 543.375 826.692, 553 829.621 C 611.352 847.374, 668.639 850.898, 721.500 839.985 C 751.056 833.883, 778.424 823.198, 803.431 807.996 C 815.278 800.795, 827.503 792.645, 838 784.952 C 887.883 748.391, 921.340 730.446, 956.067 721.627 C 969.031 718.334, 992.410 715.077, 993.714 716.381 C 994.055 716.721, 993.078 717, 991.543 717 C 971.838 717, 927.745 745.196, 909.836 769.250 C 905.124 775.579, 904.566 776, 900.894 776 C 893.939 776, 879 786.302, 879 791.098 C 879 791.583, 875.962 793.354, 872.250 795.034 C 856.125 802.331, 849 815.361, 849 837.556 L 849 845.744 853 846.384 L 857 847.024 857 852.512 C 857 858.744, 858.906 859.651, 865.182 856.406 C 868.401 854.741, 869.947 855.532, 869.985 858.861 C 870.008 860.912, 876.374 859.429, 883.267 855.767 C 896.067 848.967, 904.763 836.292, 905.963 822.689 C 906.462 817.030, 907.541 812.646, 909.456 808.500 C 912.739 801.391, 914.023 788.631, 912.056 782.671 C 910.469 777.860, 911.154 776.787, 924.842 762.656 C 960.013 726.346, 1005.051 712.457, 1042.500 726.373 C 1047.680 728.298, 1046.436 728.318, 1034.413 726.506 C 1002.155 721.644, 979.022 732.816, 965.945 759.573 C 959.860 772.024, 960.146 772.161, 979.057 765.860 C 997.601 759.681, 1003.740 756.954, 1013.573 750.532 C 1018.483 747.325, 1024.075 743.693, 1026 742.460 C 1042.907 731.633, 1069.873 737.079, 1100.500 757.505 C 1109.691 763.635, 1115.345 768.048, 1134.258 783.854 C 1147.282 794.738, 1153.644 799.605, 1160.793 804.153 C 1165.104 806.896, 1164.380 807.399, 1158.906 805.465 C 1137.611 797.942, 1106.639 795.103, 1088.569 799.017 C 1084.797 799.834, 1084.421 799.671, 1079.330 795.019 C 1072.668 788.930, 1066.428 786.708, 1057.274 787.165 L 1050.574 787.500 1046.577 783.161 C 1037.878 773.716, 1023.063 770.331, 1010.750 774.975 C 1003.700 777.634, 1003.577 780.461, 1010.141 788.885 C 1012.623 792.069, 1012.514 792.544, 1008.969 794.013 C 997.463 798.779, 991.831 809.660, 998.085 815.041 L 1002.202 818.583 998.544 823.375 C 992.945 830.710, 996.750 835.080, 1010.044 836.584 L 1015.799 837.236 1014.400 840.586 C 1013.630 842.428, 1013 845.750, 1013 847.968 L 1013 852 1021.479 852 C 1038.412 852, 1048.306 846.445, 1054.570 833.422 C 1057.441 827.451, 1058.579 826, 1060.388 826 C 1069.570 826, 1080.737 818.324, 1083.703 809.974 C 1085.835 803.971, 1088.002 803.479, 1112 803.539 C 1133.311 803.593, 1152.639 808.267, 1175 818.774 L 1181.500 821.828 1169.500 821.929 C 1136.639 822.205, 1112.648 836.981, 1093.675 868.631 C 1087.130 879.549, 1088.735 880.753, 1108.423 879.688 C 1134.585 878.273, 1151.397 871.133, 1166.902 854.852 C 1188.056 832.639, 1187.132 833.451, 1193.683 831.333 L 1199.865 829.334 1208.183 832.034 C 1228.327 838.573, 1232.962 839.934, 1240.500 841.522 C 1257.743 845.155, 1285.184 844.484, 1303.528 839.981 C 1311.109 838.120, 1315.503 838.023, 1393.120 838.012 L 1474.740 838 1485.620 840.551 C 1512.888 846.946, 1540.303 844.873, 1573.830 833.881 C 1592.293 827.828, 1599.135 829.970, 1611.582 845.699 C 1629.584 868.449, 1648.207 878.022, 1677.579 879.627 C 1698.334 880.761, 1699.435 880.018, 1693.097 869.167 C 1674.039 836.534, 1650.674 822.034, 1617.062 821.980 L 1604.500 821.959 1614.240 817.517 C 1639.861 805.832, 1667.581 800.870, 1690.273 803.907 C 1701.593 805.421, 1701.496 805.373, 1702.967 810.302 C 1705.257 817.975, 1714.775 824.881, 1724.333 825.804 C 1727.625 826.122, 1729.324 826.785, 1729.662 827.885 C 1734.440 843.468, 1744.896 850.914, 1763.239 851.797 L 1773.201 852.277 1772.736 846.889 C 1772.479 843.925, 1771.932 840.487, 1771.518 839.250 C 1770.834 837.203, 1771.081 837, 1774.258 837 C 1777.710 837, 1784.392 835.075, 1788.750 832.824 C 1791.996 831.148, 1791.576 827.635, 1787.491 822.285 L 1783.982 817.689 1787.241 815.719 C 1795.404 810.783, 1791.482 802.177, 1777.209 793.707 C 1774.101 791.863, 1774.004 791.637, 1775.457 789.627 C 1784.444 777.196, 1781.767 773.593, 1763.500 773.533 C 1751.750 773.494, 1746.261 775.624, 1740.115 782.607 L 1736.484 786.732 1727.492 787.189 C 1716.904 787.727, 1709.836 790.726, 1705.376 796.573 C 1702.976 799.720, 1702.241 800.097, 1699.564 799.554 C 1678.805 795.341, 1643.359 798.616, 1624.500 806.488 C 1623.400 806.947, 1626.775 804.033, 1632 800.011 C 1637.225 795.989, 1646.319 788.682, 1652.208 783.774 C 1711.146 734.655, 1737.546 726.626, 1769.505 748.101 C 1782.610 756.907, 1813.796 770, 1821.665 770 C 1826.302 770, 1817.743 751.856, 1808.904 742.948 C 1793.344 727.266, 1775.532 722.150, 1751.250 726.386 C 1740.786 728.212, 1739.450 728.292, 1742.979 726.884 C 1783.624 710.667, 1832.108 728.003, 1870.716 772.557 L 1875.932 778.577 1874.390 783.538 C 1872.335 790.149, 1873.175 799.247, 1876.580 807.257 C 1878.170 810.999, 1879.563 816.705, 1880.055 821.500 C 1881.167 832.318, 1884.249 839.126, 1892.146 848.208 C 1899.486 856.650, 1916.153 862.498, 1916.806 856.860 L 1917.112 854.219 1921.942 856.260 C 1928.495 859.028, 1930 858.277, 1930 852.238 C 1930 847.658, 1930.165 847.365, 1933.250 846.457 L 1936.500 845.500 1936.788 835.635 C 1937.410 814.276, 1924.910 794.211, 1910.864 794.022 C 1909.964 794.010, 1907.328 791.404, 1905.005 788.232 C 1899.428 780.615, 1894.333 777.076, 1886.911 775.666 C 1881.122 774.566, 1880.688 774.260, 1874.494 766.920 C 1856.335 745.402, 1833.075 728.875, 1809.500 720.740 L 1798.500 716.944 1807.500 717.412 C 1841.271 719.166, 1892.065 742.300, 1936 775.938 C 2025.518 844.475, 2115.084 862.487, 2222 833.454 C 2228.875 831.587, 2238.392 828.740, 2243.148 827.128 C 2248.654 825.261, 2252.144 824.544, 2252.753 825.153 C 2253.279 825.679, 2256.548 826.772, 2260.018 827.581 C 2268.572 829.577, 2274.217 832.841, 2283.405 841.104 C 2306.226 861.630, 2318.799 867.164, 2343 867.335 C 2369.017 867.519, 2373.878 864.786, 2366.882 853.905 C 2345.226 820.225, 2315.509 807.806, 2275.082 815.540 C 2272.189 816.094, 2271.776 816.298, 2298 804.202 C 2321.713 793.264, 2349.355 779.060, 2363.488 770.550 C 2366.730 768.597, 2369.755 767, 2370.211 767 C 2370.667 767, 2372.831 765.869, 2375.020 764.487 C 2377.611 762.852, 2379.019 762.416, 2379.055 763.237 C 2379.086 763.932, 2379.064 769.683, 2379.007 776.019 C 2378.769 802.432, 2395.045 819.118, 2404.094 801.738 L 2406.053 797.976 2409.221 799.614 C 2413.485 801.819, 2424.807 805, 2428.391 805 L 2431.289 805 2430.714 798.750 L 2430.139 792.500 2437.820 792.366 C 2454.665 792.071, 2456.348 790.260, 2450.361 778.868 C 2448.360 775.060, 2446.898 771.792, 2447.111 771.606 C 2447.325 771.421, 2449.525 770.035, 2452 768.527 C 2461.487 762.744, 2462.986 761.493, 2462.993 759.347 C 2463.001 756.984, 2456.094 751.882, 2447.807 748.128 L 2443.114 746.002 2446.576 740.751 C 2450.370 734.995, 2454.256 725.548, 2453.794 723.205 C 2453.316 720.789, 2445.297 718.910, 2432.871 718.303 L 2421.242 717.735 2420.805 706.618 C 2420.086 688.349, 2416.516 686.869, 2402.473 699.023 C 2399.884 701.264, 2397.617 702.950, 2397.436 702.770 C 2397.256 702.589, 2395.164 699.529, 2392.789 695.971 C 2385.425 684.939, 2376.064 693.580, 2370.387 716.649 C 2369.460 720.417, 2368.650 723.581, 2368.586 723.681 C 2368.523 723.781, 2365.337 722.993, 2361.507 721.931 C 2350.545 718.891, 2349 719.151, 2349 724.032 C 2349 733.398, 2357.832 749.968, 2365.964 755.859 L 2369.743 758.597 2357.622 765.531 C 2324.844 784.281, 2275.081 807.556, 2244.095 818.630 C 2229.864 823.716, 2228.696 823.752, 2232.907 818.974 C 2234.590 817.063, 2235.975 814.986, 2235.984 814.358 C 2235.993 813.731, 2237.219 812.911, 2238.708 812.537 C 2275.956 803.189, 2301.357 765.947, 2303.701 717.250 C 2304.357 703.635, 2304.656 704.131, 2297.285 706.608 C 2265.033 717.448, 2247.614 738.278, 2243.490 770.936 C 2240.594 793.876, 2236.498 804.330, 2226.442 814.453 C 2225.311 815.592, 2223.286 818.819, 2221.942 821.624 L 2219.500 826.724 2209 829.315 C 2182.939 835.746, 2131.997 842.110, 2132 838.934 C 2132 838.058, 2142.293 834, 2144.519 833.999 C 2174.549 833.979, 2204.967 808.249, 2211.519 777.325 C 2214.345 763.988, 2213.647 763.165, 2202.703 766.930 C 2177.993 775.432, 2166.862 785.537, 2157.489 807.977 C 2152.661 819.537, 2144.706 828, 2138.671 828 C 2137.761 828, 2131.653 830.492, 2125.096 833.537 C 2111.486 839.858, 2113.743 839.724, 2085 835.916 C 2056.876 832.191, 2034.696 825.396, 2008.500 812.481 C 1987.199 801.979, 1978.426 796.353, 1929 761.490 C 1902.122 742.532, 1882.317 731.413, 1858.631 721.984 L 1846.761 717.259 1861.131 716.752 C 1892.607 715.641, 1913.095 702.565, 1927.330 674.500 C 1935.258 658.869, 1934.573 655.752, 1923.500 657.081 C 1900.659 659.821, 1883.390 669.151, 1869.382 686.319 C 1856.434 702.189, 1846.937 708.916, 1835.500 710.319 C 1825.627 711.530, 1824.091 711.515, 1809.250 710.068 C 1796.663 708.840, 1774.023 709.717, 1768.230 711.657 C 1767.279 711.976, 1769.875 710.099, 1774 707.485 C 1785.762 700.034, 1797.170 690.734, 1804.450 682.665 L 1811.135 675.254 1818.360 674.791 C 1827.085 674.231, 1834.018 670.339, 1840.870 662.155 C 1843.244 659.320, 1846.008 657, 1847.013 657 C 1857.831 657, 1869.042 640.941, 1870.860 622.843 C 1871.924 612.250, 1871.621 611.640, 1865.750 612.577 L 1862 613.176 1862 607.468 L 1862 601.760 1856.250 602.288 C 1853.088 602.579, 1849.487 603.136, 1848.250 603.525 C 1846.223 604.163, 1845.999 603.899, 1845.986 600.867 C 1845.949 591.625, 1842.401 590.795, 1832.119 597.622 C 1819.286 606.142, 1813.212 615.056, 1810.985 628.633 C 1810.522 631.456, 1808.426 637.081, 1806.329 641.133 C 1801.800 649.880, 1800.636 665.730, 1804.231 669.703 C 1805.898 671.545, 1805.660 671.914, 1797.731 679.784 C 1780.291 697.094, 1764.004 707.528, 1732.777 721.398 C 1716.933 728.436, 1695.651 740.355, 1683.659 748.908 C 1679.346 751.984, 1674.897 755.158, 1673.773 755.962 C 1667.808 760.229, 1678.129 745.690, 1690.496 732.408 C 1716.791 704.166, 1721.890 692.585, 1721.164 662.750 C 1720.936 653.385, 1715.216 654.485, 1697.500 667.300 C 1670.918 686.529, 1662.147 707.671, 1665.009 745.614 L 1666.275 762.405 1664.054 763.953 C 1661.472 765.751, 1652.266 773.252, 1639.500 783.959 C 1634.550 788.110, 1628.025 793.341, 1625 795.583 C 1609.466 807.096, 1605.361 809.987, 1601.602 812.061 L 1597.500 814.324 1603.531 807.912 C 1631.671 777.994, 1640.052 739.121, 1628.343 692.830 L 1626.656 686.160 1629.864 683.461 C 1633.625 680.296, 1636 676.101, 1636 672.621 C 1636 670.405, 1636.611 670.018, 1641.750 668.973 C 1655.564 666.165, 1676.047 652.819, 1673.444 648.324 C 1672.012 645.853, 1662.314 641, 1658.806 641 L 1655.971 641 1658.944 635.111 C 1661.364 630.317, 1666 612.565, 1666 608.093 C 1666 606.271, 1657.211 606.922, 1647.936 609.430 C 1645.514 610.085, 1645.305 609.834, 1644.163 604.885 C 1642.674 598.434, 1638.082 588, 1636.731 588 C 1633.754 588, 1618 602.301, 1618 605.005 C 1618 605.370, 1614.190 601.918, 1609.533 597.334 C 1598.073 586.053, 1588 592.278, 1588 610.642 C 1588 611.643, 1587.444 612, 1586.468 611.626 C 1564.015 603.010, 1556.529 608.578, 1564.600 627.893 C 1566.290 631.938, 1566.302 631.920, 1561.036 633.103 C 1555.650 634.313, 1547.953 637.959, 1547.324 639.597 C 1546.192 642.548, 1561.732 659.828, 1567.031 661.510 C 1568.175 661.873, 1568.964 662.469, 1568.786 662.835 C 1568.607 663.201, 1566.712 666.930, 1564.575 671.122 C 1562.437 675.314, 1560.957 679.445, 1561.286 680.302 C 1562.893 684.491, 1590.087 684.774, 1599.990 680.705 L 1606.480 678.039 1608.704 680.881 C 1609.927 682.444, 1613.125 684.668, 1615.811 685.824 L 1620.695 687.924 1623.290 697.712 C 1639.365 758.346, 1608.047 817.333, 1552 831.987 C 1533.737 836.762, 1500.553 838.593, 1516.584 833.942 C 1579.214 815.768, 1602.134 768.844, 1575.779 712.750 C 1570.238 700.956, 1569.620 701.034, 1559.887 714.762 C 1540.887 741.563, 1536.831 752.345, 1535.536 779.500 C 1533.659 818.877, 1529.591 824.968, 1501.319 830.739 C 1491.635 832.715, 1343.741 833.756, 1307.500 832.102 C 1258.975 829.888, 1253.103 824.580, 1250.973 781 C 1249.525 751.400, 1242.021 732.738, 1221.318 707.250 C 1216.573 701.408, 1216.064 701.672, 1210.695 712.750 C 1194.497 746.175, 1197.066 783.041, 1217.042 803.808 C 1228.297 815.509, 1263.900 834.875, 1274.443 835.030 C 1276.424 835.060, 1276.430 835.101, 1274.602 836.163 C 1272.244 837.532, 1255.690 836.537, 1245 834.382 C 1179.846 821.253, 1145.178 761.270, 1163.862 694 C 1165.512 688.061, 1165.959 687.414, 1169.045 686.500 C 1170.903 685.950, 1174.139 683.872, 1176.235 681.883 L 1180.047 678.265 1186.555 680.628 C 1196.744 684.326, 1220.799 684.601, 1224.340 681.060 C 1225.492 679.908, 1222.543 671.080, 1219.516 666.619 L 1217.166 663.156 1220.833 660.706 C 1227.407 656.314, 1239 643.590, 1239 640.766 C 1239 638.234, 1235.735 636.222, 1227.886 633.916 C 1220.109 631.631, 1219.141 630.407, 1222.028 626.500 C 1223.107 625.039, 1225 615.456, 1225 611.451 L 1225 608 1219.250 608.017 C 1216.088 608.027, 1210.142 608.906, 1206.038 609.972 C 1201.934 611.038, 1198.513 611.817, 1198.436 611.705 C 1198.358 611.592, 1197.766 609.338, 1197.120 606.696 C 1192.270 586.879, 1188.961 585.159, 1177.444 596.470 M 1149.911 596.618 C 1143.512 612.790, 1144.822 632.129, 1153.206 645.288 C 1156.757 650.861, 1157.216 650.893, 1155.996 645.484 C 1154.358 638.220, 1157.335 624.338, 1161.998 617.500 C 1167.035 610.113, 1166.724 608.621, 1158.453 600.500 C 1151.218 593.396, 1151.190 593.384, 1149.911 596.618 M 1597.204 597.615 C 1584.920 621.792, 1594.837 658, 1613.743 658 C 1633.888 658, 1629.326 623.260, 1606.207 600.615 L 1599.178 593.730 1597.204 597.615 M 1627.159 601.469 C 1619.468 609.566, 1619.461 609.596, 1623.726 616.119 C 1629.400 624.797, 1632.410 639.281, 1630.198 647.261 C 1628.825 652.213, 1630.094 651.267, 1633.921 644.485 C 1640.789 632.316, 1642.760 614.386, 1638.617 601.762 C 1635.725 592.950, 1635.263 592.938, 1627.159 601.469 M 1177.894 603.250 C 1160.346 621.683, 1154.614 644.847, 1165.071 655.069 C 1180.393 670.047, 1201.656 634.681, 1193.069 608.500 C 1187.907 592.759, 1187.888 592.752, 1177.894 603.250 M 945 602.892 C 945 606.187, 945.375 606.877, 947.450 607.398 C 954.051 609.055, 968 626.625, 968 633.282 C 968 634.960, 968.230 635.054, 969.585 633.930 C 975.789 628.780, 962.941 607.138, 949.955 600.864 C 944.905 598.424, 945 598.385, 945 602.892 M 1833.500 602.427 C 1823.996 608.750, 1818.961 615.914, 1816.808 626.178 C 1814.885 635.349, 1816.710 636.769, 1819.793 628.500 C 1822.587 621.008, 1830.958 611.356, 1837.750 607.797 C 1840.486 606.363, 1841 605.532, 1841 602.547 C 1841 598.145, 1839.962 598.129, 1833.500 602.427 M 928.833 610.306 C 927.198 624.310, 936.356 643.616, 946.831 648.249 C 971.210 659.034, 968.042 622.669, 943.596 611.119 C 933.050 606.136, 929.343 605.932, 928.833 610.306 M 1846.892 609.354 C 1829.363 616.565, 1818.777 633.391, 1823.935 645.843 C 1826.814 652.793, 1841.253 650.177, 1847.908 641.500 C 1849.595 639.300, 1851.377 637.015, 1851.867 636.422 C 1853.711 634.191, 1856.247 623.205, 1856.755 615.250 C 1857.374 605.558, 1856.863 605.253, 1846.892 609.354 M 1126.560 614.718 C 1127.308 618.987, 1129.391 626.322, 1131.751 633 C 1133.591 638.206, 1142.532 647.652, 1150.987 653.321 C 1156.199 656.816, 1160.905 658.723, 1156.220 655.442 C 1149.344 650.626, 1142.084 634.558, 1141.239 622.287 L 1140.742 615.075 1136.121 613.626 C 1125.936 610.433, 1125.812 610.447, 1126.560 614.718 M 1209 613.868 C 1198.899 616.149, 1199 616.051, 1199 623.572 C 1199 636.640, 1192.828 651.783, 1185.070 657.750 C 1179.680 661.896, 1182.118 662, 1190.533 657.984 C 1201.970 652.526, 1214.497 635.623, 1218.421 620.356 C 1220.899 610.712, 1221.412 611.065, 1209 613.868 M 1567.310 616.970 C 1569.223 633.123, 1583.690 652.651, 1598.420 658.966 C 1604.717 661.665, 1604.953 661.560, 1601.087 657.781 C 1592.565 649.449, 1588.226 639.250, 1587.317 625.416 L 1586.705 616.097 1577.979 614.049 C 1566.107 611.262, 1566.617 611.122, 1567.310 616.970 M 1654.500 612.525 C 1653.950 612.727, 1651.588 613.384, 1649.250 613.985 L 1645 615.077 1645 621.357 C 1645 631.576, 1639.443 646.477, 1633.600 651.924 C 1629.214 656.014, 1630.701 656.251, 1636.750 652.426 C 1650.380 643.808, 1654.395 637.811, 1658.960 619.250 L 1660.743 612 1658.122 612.079 C 1656.680 612.122, 1655.050 612.323, 1654.500 612.525 M 920.048 624.295 C 921.235 635.763, 927.350 645.523, 936.210 650.088 C 942.424 653.290, 945.245 652.627, 940.447 649.093 C 933.730 644.145, 927.959 634.448, 925.648 624.227 C 923.553 614.959, 919.087 615.013, 920.048 624.295 M 1860.577 620.250 C 1860.323 621.487, 1859.823 624.300, 1859.467 626.500 C 1858.055 635.208, 1852.106 644.684, 1844.536 650.282 L 1840.500 653.267 1843.830 652.642 C 1857.115 650.151, 1866.940 636.200, 1866.994 619.750 C 1867.004 616.900, 1861.171 617.354, 1860.577 620.250 M 1214.889 639.679 C 1207.971 650.874, 1199.440 658.809, 1190.270 662.580 L 1184.500 664.953 1188.500 664.978 C 1202.108 665.063, 1218.424 657.834, 1227.292 647.791 C 1233.593 640.655, 1233.519 640.419, 1224.055 637.609 C 1217.046 635.527, 1217.522 635.420, 1214.889 639.679 M 1563 637.620 C 1562.175 637.900, 1559.569 638.819, 1557.210 639.663 L 1552.920 641.196 1556.603 645.848 C 1563.882 655.043, 1571.681 659.659, 1585.628 663.031 C 1598.916 666.243, 1602.043 665.764, 1594.015 661.746 C 1586.714 658.092, 1576.510 648.473, 1572.824 641.771 C 1570.465 637.482, 1567.322 636.154, 1563 637.620 M 971.183 640.279 C 967.174 645.111, 966.737 649.133, 969.870 652.382 C 971.523 654.097, 973.911 657.750, 975.176 660.500 L 977.476 665.500 977.790 659.663 C 978.253 651.079, 973.585 637.385, 971.183 640.279 M 1810.595 646.113 C 1806.502 657.157, 1807.007 670.168, 1811.168 660.873 C 1812.231 658.499, 1814.203 655.112, 1815.550 653.345 C 1818.515 649.458, 1818.636 646.555, 1816.011 642.250 C 1813.436 638.027, 1813.649 637.876, 1810.595 646.113 M 1646.336 650.108 C 1642.576 653.380, 1636.447 657.597, 1632.716 659.478 L 1625.932 662.899 1629.996 664.117 C 1637.917 666.490, 1650.877 662.690, 1661.250 654.953 C 1668.930 649.225, 1668.789 648.777, 1658.336 645.686 L 1653.172 644.159 1646.336 650.108 M 1124.750 647.160 C 1118.950 649.718, 1118.929 650.015, 1124.250 654.244 C 1134.479 662.373, 1145.204 665.780, 1155.500 664.169 L 1160.500 663.386 1153.500 659.790 C 1149.650 657.811, 1143.729 653.675, 1140.343 650.596 C 1133.457 644.338, 1131.918 643.999, 1124.750 647.160 M 952.500 655.713 C 948.713 656.624, 948.890 657.733, 953.463 661.759 C 959.051 666.677, 964.033 669.137, 969.704 669.776 L 973.988 670.259 970.894 664.379 C 966.216 655.489, 961.895 653.453, 952.500 655.713 M 1820.896 656.212 C 1819.224 657.562, 1815.761 663.869, 1814.561 667.750 C 1813.651 670.692, 1815.966 670.733, 1823.518 667.908 C 1829.797 665.558, 1837.982 658.582, 1836.361 656.961 C 1834.701 655.301, 1822.742 654.722, 1820.896 656.212 M 860 662.417 C 860 680.965, 898.500 712.263, 920.910 711.932 C 925.936 711.858, 926.114 712.009, 916.500 708.182 C 905.303 703.723, 890 692.298, 890 688.397 C 890 684.814, 891.710 685.407, 900.500 692.038 C 912.289 700.930, 931.754 710.113, 923.554 702.914 C 921.467 701.081, 916.166 695.144, 911.773 689.720 C 902.656 678.462, 898.729 675.263, 887.500 669.944 C 877.974 665.433, 860 660.513, 860 662.417 M 1918.500 663.185 C 1905.089 666.467, 1894.396 671.013, 1887.500 676.366 C 1882.568 680.195, 1882.786 679.973, 1875.549 688.500 C 1872.282 692.350, 1867.559 697.686, 1865.054 700.359 C 1861.105 704.571, 1860.832 705.121, 1863 704.493 C 1867.749 703.118, 1881.159 695.690, 1886.796 691.312 C 1892.513 686.873, 1896.500 685.984, 1896.500 689.149 C 1896.500 692.627, 1878.030 704.912, 1865.548 709.735 L 1859.500 712.073 1866.067 711.591 C 1890.195 709.821, 1909.890 695.605, 1922.868 670.593 C 1927.848 660.993, 1927.799 660.910, 1918.500 663.185 M 1070 666.852 C 1070 688.015, 1080.224 709.037, 1099.920 728.371 L 1109.976 738.242 1107.960 732.371 C 1105.978 726.599, 1098.929 712.037, 1096.983 709.695 C 1087.766 698.602, 1085.061 693, 1088.922 693 C 1093.720 693, 1106.600 712.300, 1112.947 729 L 1116.938 739.500 1116.969 728.932 C 1117.043 703.595, 1100.417 678.380, 1075.215 665.609 L 1070 662.966 1070 666.852 M 1710.429 665.589 C 1685.962 678.598, 1669.910 704.031, 1670.092 729.500 L 1670.149 737.500 1672.429 731 C 1678.795 712.850, 1691.619 694, 1697.600 694 C 1700.374 694, 1700.772 696.115, 1698.372 698.106 C 1695.337 700.625, 1684.720 717.327, 1680.999 725.434 C 1677.190 733.735, 1675.073 740.330, 1676.805 738.500 C 1708.197 705.326, 1714.393 694.930, 1715.689 673.250 C 1716.026 667.612, 1716.076 663, 1715.800 663 C 1715.524 663, 1713.107 664.165, 1710.429 665.589 M 1205 666.138 C 1198.991 668.211, 1182.986 670.304, 1179 669.537 L 1176.500 669.057 1179 671.098 C 1186.728 677.407, 1214.290 682.047, 1218.574 677.760 C 1219.959 676.374, 1213.127 663.775, 1211.177 664.120 C 1210.805 664.186, 1208.025 665.094, 1205 666.138 M 1164 666.016 C 1163.175 666.557, 1160.807 667.469, 1158.738 668.042 C 1154.104 669.325, 1154.349 674.223, 1159.323 679.750 C 1163.319 684.189, 1175 680.724, 1175 675.100 C 1175 673.785, 1166.861 664.937, 1165.723 665.015 C 1165.600 665.024, 1164.825 665.474, 1164 666.016 M 1571.620 668.432 C 1564.497 677.771, 1565.185 678.517, 1580.837 678.427 C 1594.746 678.346, 1598.789 677.338, 1605.917 672.175 L 1610.040 669.189 1601.201 669.094 C 1595.862 669.037, 1589.418 668.216, 1584.931 667.023 C 1575.079 664.403, 1574.659 664.448, 1571.620 668.432 M 1615.750 669.524 C 1611.199 673.645, 1611.186 673.675, 1612.680 676.758 C 1616.250 684.129, 1626.451 683.952, 1629.579 676.466 C 1631.953 670.783, 1631.480 669.699, 1625.643 667.443 L 1620.321 665.386 1615.750 669.524 M 396.689 699.250 C 392.357 705.085, 391.849 708.233, 394.659 711.823 C 400.629 719.452, 406.875 736.531, 407.083 745.799 L 407.167 749.500 409.833 744 C 417.703 727.768, 405.744 687.053, 396.689 699.250 M 2382.629 700.250 C 2372.578 717.648, 2370.949 731.631, 2377.357 745.500 L 2379.667 750.500 2380.263 742.500 C 2381.003 732.567, 2385.072 721.977, 2392.512 710.621 C 2394.247 707.974, 2393.034 703.855, 2389.018 698.750 C 2386.148 695.102, 2385.518 695.250, 2382.629 700.250 M 2409.885 699.963 C 2396.856 708.073, 2383.788 729.893, 2384.110 743 L 2384.172 745.500 2384.975 742.841 C 2387.797 733.498, 2401.546 721.966, 2412.750 719.544 C 2416.375 718.760, 2416.533 718.071, 2416.103 705 C 2415.832 696.772, 2415.476 696.483, 2409.885 699.963 M 370.607 699.582 C 369.857 701.536, 369.829 714.770, 370.569 717.500 C 370.949 718.902, 372.916 720.067, 377.144 721.396 C 388.101 724.839, 397.248 733.032, 401.082 742.836 C 403.155 748.135, 403.528 746.145, 402.010 737.886 C 399.486 724.147, 385.165 703.603, 375.213 699.445 C 370.995 697.682, 371.340 697.672, 370.607 699.582 M 487.655 717.804 C 490.861 754.384, 504.409 781.633, 526.250 795.429 C 532.570 799.421, 533.707 798.998, 528.912 794.437 C 516.702 782.822, 499.682 743, 506.928 743 C 508.838 743, 510.438 746.280, 514.002 757.500 C 518.300 771.032, 530.391 789.417, 539.687 796.558 L 542.874 799.006 541.064 792.253 C 540.069 788.539, 538.723 780.775, 538.074 775 C 534.611 744.188, 519.026 724.226, 489.742 713.092 L 487.156 712.109 487.655 717.804 M 1215.466 715.618 C 1196.260 760.252, 1204.357 793.068, 1239.702 813.835 L 1244.905 816.892 1239.878 810.696 C 1228.775 797.009, 1223.556 781.976, 1222.366 760.250 L 1221.695 748 1224.208 748 C 1226.710 748, 1226.724 748.051, 1227.284 759.250 C 1228.174 777.047, 1232.488 789.605, 1242.763 804.307 C 1249.194 813.510, 1249.190 813.510, 1247.436 804.500 C 1246.687 800.650, 1246.048 793.225, 1246.017 788 C 1245.851 759.876, 1235.962 733.361, 1217.904 712.618 C 1217.482 712.134, 1216.385 713.484, 1215.466 715.618 M 2290.360 715.915 C 2263.307 728.743, 2251.286 746.100, 2248.058 777 C 2247.454 782.775, 2246.311 789.954, 2245.517 792.953 C 2243.650 800.008, 2243.894 800.088, 2249.764 794.333 C 2259.979 784.318, 2269.050 768.678, 2274.693 751.349 C 2277.268 743.442, 2282 738.938, 2282 744.395 C 2282 753.640, 2268.257 783.049, 2259.261 793.055 C 2254.104 798.791, 2254.721 799.282, 2261.469 794.813 C 2279.230 783.048, 2291.897 761.095, 2296.408 734.258 C 2298.046 724.512, 2299.432 711.985, 2298.866 712.028 C 2298.665 712.043, 2294.837 713.792, 2290.360 715.915 M 1566.894 715.281 C 1546.386 743.604, 1542.417 754.194, 1540.952 784.500 C 1540.447 794.950, 1539.608 805.300, 1539.089 807.500 L 1538.144 811.500 1541.143 808 C 1551.062 796.423, 1557.460 779.915, 1559.205 761.397 C 1560.214 750.690, 1560.613 749, 1562.128 749 C 1564.925 749, 1565.087 750.169, 1564.085 763.182 C 1562.470 784.181, 1558.404 795.189, 1546.289 811.368 L 1542.643 816.236 1545.614 814.700 C 1579.801 797.021, 1589.835 759.858, 1571.789 717.750 C 1569.485 712.373, 1569.129 712.194, 1566.894 715.281 M 2420.500 722.664 C 2389.679 725.872, 2374.629 759.849, 2402.354 763.632 C 2414.643 765.309, 2435.595 751.877, 2442.653 737.795 C 2446.197 730.724, 2448 726.736, 2448 725.965 C 2448 723.960, 2429.448 721.733, 2420.500 722.664 M 346.500 723.497 C 345.950 723.684, 343.835 724.114, 341.801 724.454 L 338.102 725.072 340.115 729.786 C 350.089 753.134, 372.433 767.801, 390.196 762.658 C 404.745 758.446, 399.528 736.665, 381.823 727.708 C 374.321 723.912, 352.830 721.350, 346.500 723.497 M 422.943 727.575 L 417.387 730.112 416.282 736.565 C 415.674 740.114, 413.805 745.807, 412.129 749.217 C 408.607 756.381, 408.783 757.089, 413.423 754.436 C 422.285 749.369, 429.754 738.786, 431.551 728.750 C 432.386 724.086, 431 723.897, 422.943 727.575 M 2354.459 728.709 C 2355.230 732.904, 2360.139 743.381, 2362.796 746.501 C 2367.132 751.593, 2379.491 758.896, 2377.841 755.391 C 2377.610 754.901, 2375.974 751.575, 2374.205 748 C 2372.436 744.425, 2370.459 738.951, 2369.812 735.835 C 2368.051 727.361, 2352.920 720.337, 2354.459 728.709 M 1012.500 731.102 C 996.568 733.030, 971 752.307, 971 762.391 C 971 763.169, 989.324 756.661, 997 753.157 C 1003.687 750.104, 1024.303 737, 1022.418 737 C 1019.477 737, 1009.674 740.608, 1003.173 744.083 C 992.053 750.028, 985.178 748.107, 995.252 741.870 C 1001.918 737.743, 1003.968 736.795, 1012.384 733.949 C 1021.278 730.942, 1021.315 730.035, 1012.500 731.102 M 1763 730.690 C 1776.166 732.888, 1795 741.939, 1795 746.068 C 1795 748.801, 1792.921 748.489, 1785.183 744.592 C 1778.952 741.454, 1766.952 737, 1764.729 737 C 1759.990 737, 1791.492 754.465, 1804.533 759.068 C 1815.050 762.780, 1815.446 762.766, 1813.377 758.750 C 1804.714 741.930, 1784.254 729.650, 1765.701 730.136 C 1762.840 730.211, 1761.625 730.460, 1763 730.690 M 338.932 753.280 C 330.338 758.250, 329.481 758.822, 330.008 759.234 C 333.231 761.748, 341.179 767, 341.760 767 C 342.176 767, 344.631 768.126, 347.215 769.502 C 359.804 776.203, 373.942 776.843, 385.765 771.245 C 392.685 767.968, 392.969 767.200, 387.051 767.769 C 375.988 768.832, 362.442 763.698, 352.338 754.614 C 346.266 749.155, 346.095 749.138, 338.932 753.280 M 2434.500 754.549 C 2424.790 763.279, 2410.404 768.696, 2399.361 767.780 C 2393.297 767.277, 2393.977 768.383, 2402 772.068 C 2414.968 778.026, 2433.357 774.449, 2453.375 762.077 L 2457.040 759.812 2452.921 756.828 C 2449.730 754.516, 2440.666 749.865, 2439.667 750.027 C 2439.575 750.042, 2437.250 752.077, 2434.500 754.549 M 399.590 772.292 C 397.452 778.312, 390.991 788.295, 386.698 792.212 C 383.278 795.331, 383.884 798.677, 388.677 803.151 L 391.193 805.500 394.138 802 C 400.914 793.947, 404.966 780.147, 403.043 771.671 C 401.844 766.382, 401.678 766.412, 399.590 772.292 M 2383.949 768.198 C 2383.921 768.914, 2383.658 771.381, 2383.364 773.681 C 2382.301 781.998, 2385.926 793.256, 2392.260 801.305 L 2395.255 805.109 2397.547 802.956 C 2402.649 798.162, 2402.694 795.617, 2397.777 789.995 C 2395.336 787.205, 2391.238 780.866, 2388.669 775.908 C 2386.101 770.951, 2383.977 767.481, 2383.949 768.198 M 393.140 772.331 C 387.657 778.938, 366.188 781.288, 353.144 776.709 L 345.787 774.127 343.644 776.441 C 342.465 777.713, 340.529 780.575, 339.341 782.800 L 337.183 786.846 344.365 787.520 C 348.315 787.890, 354.124 787.918, 357.274 787.582 C 363.537 786.915, 363.695 787.093, 361.500 792.346 C 359.098 798.095, 359.460 800.154, 362.750 799.448 C 376.944 796.403, 385.001 790.358, 392.985 776.767 C 395.308 772.813, 395.421 769.583, 393.140 772.331 M 2204 772.262 C 2180.524 781.620, 2170.353 791.014, 2162.602 810.500 C 2161.070 814.350, 2159.353 818.063, 2158.786 818.750 C 2157.075 820.824, 2158.898 820.167, 2163.320 817.115 C 2167.851 813.988, 2177.198 804.466, 2180.857 799.250 C 2184.843 793.567, 2188.628 795.950, 2185.432 802.131 C 2184.491 803.952, 2179.785 809.377, 2174.976 814.186 C 2163.411 825.751, 2175.090 821.631, 2187.734 809.685 C 2199.135 798.914, 2212.127 769.023, 2204 772.262 M 2391 771.540 C 2391 780.663, 2414.564 800, 2425.682 800 C 2426.776 800, 2425.676 793.788, 2424 790.500 C 2421.469 785.535, 2421.413 785.710, 2425.250 786.569 C 2429.203 787.455, 2446.916 787.417, 2447.812 786.521 C 2452.208 782.126, 2440.779 773.713, 2433.692 776.128 C 2420.385 780.661, 2406.260 779.639, 2395.250 773.345 C 2392.912 772.009, 2391 771.196, 2391 771.540 M 580.353 775.806 C 582.804 791.137, 594.371 808.303, 608.500 817.582 C 611.490 819.545, 622.746 824.239, 620.940 822.770 C 612.115 815.589, 609.255 812.847, 604.972 807.465 C 602.237 804.028, 600 800.268, 600 799.108 C 600 796.049, 603.402 796.414, 605.982 799.750 C 612.622 808.334, 628.814 822.410, 627.325 818.305 C 618.664 794.419, 607.351 782.003, 587.724 774.840 L 579.732 771.923 580.353 775.806 M 1014.750 779.203 C 1010.144 780.426, 1010.139 780.634, 1014.578 785.820 C 1017.918 789.722, 1018.500 790.001, 1023.328 790.012 C 1029.963 790.027, 1037.069 791.946, 1044 795.594 C 1047.025 797.186, 1049.897 798.661, 1050.382 798.871 C 1052.840 799.939, 1044.892 788.186, 1040.641 784.467 C 1033.690 778.386, 1024.703 776.559, 1014.750 779.203 M 1753.134 779.280 C 1748.691 780.700, 1741.221 788.248, 1737.575 795.001 L 1734.649 800.418 1738.075 798.137 C 1745.930 792.905, 1751.995 790.779, 1760.602 790.242 L 1769.016 789.717 1772.450 784.936 L 1775.885 780.156 1772.793 779.078 C 1768.933 777.732, 1757.613 777.849, 1753.134 779.280 M 896.230 783.115 C 892.303 785.059, 885 792.255, 885 794.180 C 885 797.571, 894.076 794.769, 896.110 790.750 C 897.293 788.413, 899.133 785.263, 900.199 783.750 C 902.526 780.446, 901.843 780.337, 896.230 783.115 M 1888.562 788.165 C 1890.582 792.199, 1892.308 795.589, 1892.399 795.698 C 1892.489 795.807, 1894.784 795.579, 1897.498 795.191 L 1902.433 794.485 1898.563 790.201 C 1888.793 779.387, 1883.642 778.339, 1888.562 788.165 M 903.132 790.029 C 898.972 797.229, 898.391 799.670, 900.329 801.811 C 901.190 802.763, 902.313 804.657, 902.823 806.021 C 903.685 808.321, 903.872 808.104, 905.413 803 C 909.665 788.924, 908.289 781.103, 903.132 790.029 M 1879.392 786.174 C 1878.141 788.199, 1878.836 796.279, 1880.737 801.812 L 1882.563 807.125 1885.263 803.001 L 1887.963 798.877 1884.469 791.938 C 1880.770 784.594, 1880.535 784.326, 1879.392 786.174 M 1055.053 796.750 C 1057.929 801.616, 1060.561 803.906, 1062.746 803.444 C 1063.711 803.240, 1067.122 802.568, 1070.326 801.950 C 1079.935 800.097, 1070.755 793.067, 1058.668 793.022 L 1052.837 793 1055.053 796.750 M 1718 795.012 C 1716.075 796.070, 1713.386 797.816, 1712.025 798.892 L 1709.549 800.849 1712.025 801.398 C 1726.743 804.662, 1727.164 804.583, 1730.536 797.929 L 1733.034 793 1727.267 793.044 C 1723.527 793.073, 1720.270 793.764, 1718 795.012 M 1018.500 794.990 C 1011.296 796.647, 997.287 808.569, 1000.394 810.398 C 1001.425 811.004, 1003.445 812.430, 1004.884 813.567 C 1015.401 821.874, 1030.092 822.534, 1044.776 815.357 C 1051.463 812.089, 1057.438 806, 1053.959 806 C 1053.358 806, 1051.434 804.925, 1049.683 803.612 C 1040.123 796.439, 1027.440 792.933, 1018.500 794.990 M 1755.500 794.971 C 1749.066 795.718, 1746.310 796.904, 1736.953 802.952 L 1730.966 806.822 1734.343 810.402 C 1745.974 822.734, 1771.157 823.403, 1785.362 811.756 L 1788.225 809.409 1783.136 804.533 C 1772.893 794.716, 1769.072 793.394, 1755.500 794.971 M 871 800.588 C 862.857 805.227, 856.639 813.474, 855.481 821.170 C 855.136 823.462, 855.625 822.731, 857.049 818.824 C 860.268 809.990, 868.822 801.387, 876.764 798.996 C 878.801 798.382, 878.989 798.153, 877.500 798.098 C 876.400 798.057, 873.475 799.178, 871 800.588 M 880.763 801.482 C 866.351 805.141, 858.124 818.440, 858.020 838.250 C 857.997 842.643, 858.581 842.779, 867.540 840.453 C 885.372 835.824, 892.819 828.112, 893.788 813.273 C 894.525 801.991, 891.071 798.864, 880.763 801.482 M 1894.057 802.431 C 1883.099 815.635, 1899.854 837.263, 1924.393 841.590 L 1928.287 842.276 1927.795 832.875 C 1926.689 811.722, 1903.622 790.907, 1894.057 802.431 M 1066.363 808.263 L 1060.226 809.248 1059.113 814.791 C 1057.718 821.737, 1062.236 822.040, 1071.500 815.622 C 1081.804 808.484, 1080.110 806.057, 1066.363 808.263 M 1709.438 809.881 C 1714.732 820.118, 1728.989 824.080, 1727.058 814.778 L 1725.941 809.397 1718.952 808.198 C 1708.089 806.336, 1707.646 806.414, 1709.438 809.881 M 1886.441 810.500 C 1881.969 824.759, 1891.162 844.430, 1905.786 851.891 C 1917.258 857.743, 1915.420 848.907, 1903.286 839.872 C 1892.774 832.045, 1888.956 825.717, 1887.988 814.516 C 1887.447 808.251, 1887.281 807.821, 1886.441 810.500 M 898 814.757 C 898 823.010, 892.066 833.705, 884.832 838.493 C 874.840 845.105, 869.792 854, 876.032 854 C 887.524 854, 903.056 829.471, 900.568 815.250 C 899.648 809.993, 898 809.676, 898 814.757 M 1048.475 815.041 C 1047.604 816.450, 1040.195 821.074, 1038.148 821.485 C 1037.241 821.668, 1034.333 822.369, 1031.683 823.044 C 1026.097 824.467, 1017.135 823.790, 1011.744 821.537 C 1006.843 819.490, 1006.904 819.471, 1003.750 823.931 C 1000.447 828.601, 1000.444 828.632, 1003.128 830.068 C 1012.603 835.140, 1031.444 831.506, 1042.454 822.484 C 1046.369 819.276, 1050.802 814, 1049.582 814 C 1049.327 814, 1048.829 814.468, 1048.475 815.041 M 1737.862 816.698 C 1743.948 827.801, 1769.958 835.985, 1782.315 830.684 L 1786.129 829.048 1783.017 824.524 C 1779.449 819.339, 1779.365 819.320, 1771.740 822 C 1761.447 825.618, 1749.499 824.042, 1741.101 817.958 C 1738.226 815.875, 1737.190 815.473, 1737.862 816.698 M 1050.812 819.368 C 1046.321 824.997, 1036.652 831.589, 1029.936 833.600 C 1021.394 836.159, 1013.009 848.741, 1020.642 847.545 C 1022.214 847.299, 1025.591 846.866, 1028.146 846.582 C 1042.343 845.007, 1051.625 835.703, 1053.418 821.250 C 1054.188 815.041, 1054.237 815.076, 1050.812 819.368 M 1732 817.078 C 1732 825.267, 1738.597 837.457, 1745.330 841.710 C 1752.770 846.409, 1768.037 849.133, 1767.978 845.750 C 1767.891 840.786, 1764.035 836.066, 1758.821 834.540 C 1751.243 832.322, 1743.435 827.566, 1737.301 821.431 C 1734.385 818.516, 1732 816.557, 1732 817.078 M 475.324 820.045 C 456.671 823.733, 439.680 835.209, 427.574 852.296 C 421.941 860.246, 421.748 859.684, 430.561 860.957 C 456.076 864.645, 474.376 858.664, 496.228 839.493 C 502.502 833.989, 508.729 828.723, 510.067 827.790 C 512.436 826.137, 512.330 826.108, 506 826.680 C 491.333 828.004, 473.223 834.183, 460.912 842.063 C 455.265 845.678, 453 845.841, 453 842.633 C 453 836.278, 480.586 824.561, 503 821.396 L 508.500 820.619 504 819.884 C 498.036 818.909, 480.572 819.007, 475.324 820.045 M 2284 819.952 L 2279.500 820.603 2283.500 821.330 C 2295.931 823.589, 2299.324 824.401, 2307.595 827.097 C 2319.198 830.879, 2333.377 838.851, 2333.820 841.842 C 2334.312 845.167, 2331.320 844.582, 2321.729 839.480 C 2308.736 832.568, 2295.159 828.515, 2278.500 826.575 L 2273.500 825.993 2277.183 828.247 C 2279.209 829.486, 2283.484 832.976, 2286.683 836.003 C 2310.751 858.772, 2337.411 867.454, 2361.297 860.302 L 2364.093 859.465 2359.953 853.482 C 2341.806 827.262, 2315.061 815.455, 2284 819.952 M 1155.500 828.497 C 1138.710 831.656, 1125.816 838.944, 1113.271 852.365 C 1105.874 860.278, 1096.382 873.968, 1098.220 874.073 C 1109.693 874.729, 1127.018 872.376, 1135.946 868.949 C 1149.197 863.864, 1153.647 860.303, 1174.376 838.199 L 1179.252 833 1175.876 833.647 C 1165.017 835.728, 1146.908 843.753, 1135.134 851.702 C 1128.229 856.363, 1126.279 856.890, 1125.307 854.357 C 1123.407 849.405, 1150.397 834.571, 1171.500 828.969 L 1178.500 827.110 1170.500 827.145 C 1166.100 827.165, 1159.350 827.773, 1155.500 828.497 M 1613 828.192 C 1636.091 834.712, 1662 848.402, 1662 854.085 C 1662 857.070, 1658.962 856.422, 1652.067 851.965 C 1639.144 843.612, 1624.192 837.015, 1611.340 833.994 L 1608.180 833.251 1611.840 836.942 C 1613.853 838.972, 1618.570 844.091, 1622.322 848.318 C 1637.915 865.881, 1658.021 874.612, 1680.985 873.792 L 1689.166 873.500 1684.229 865.943 C 1667.587 840.468, 1643.005 826.615, 1615.308 827.102 C 1609.722 827.200, 1609.634 827.242, 1613 828.192 M 869.500 844.055 C 868.400 844.498, 866.263 844.891, 864.750 844.930 C 862.377 844.990, 862 845.411, 862 848 C 862 851.735, 862.176 851.727, 867.309 847.760 C 869.614 845.979, 871.688 844.404, 871.917 844.260 C 873.101 843.520, 871.227 843.361, 869.500 844.055 M 1918.432 847.589 C 1921.074 850.015, 1923.633 852, 1924.118 852 C 1925.498 852, 1925.151 845.977, 1923.750 845.605 C 1923.063 845.422, 1920.504 844.801, 1918.064 844.225 L 1913.629 843.179 1918.432 847.589" stroke="none" fill="#c49b1b" fill-rule="evenodd"/></svg>